<svg width="250" height="259" viewBox="0 0 250 259" fill="none" xmlns="http://www.w3.org/2000/svg">
<g clip-path="url(#clip0_77_39)">
<path d="M96.0031 160.579C86.7006 154.389 74.0759 153.303 53.7159 159.137C32.0106 164.405 24.7737 167.782 15.2696 161.003C11.6184 157.673 10.3093 152.311 11.2868 144.588C13.554 131.997 19.6809 119.881 30.564 106.441C36.6384 99.4494 42.2734 93.4494 49.7137 91.0401C55.4162 89.5286 54.8831 94.1572 54.1931 94.8192C53.4649 94.8192 52.2418 94.9376 51.2965 95.5748C50.5293 96.1893 48.4234 98.1736 48.3102 100.843C48.1471 104.929 52.2412 104.078 54.0071 101.835C55.9106 99.3067 58.7237 94.4655 56.5109 89.9534C55.5834 88.3474 53.9809 87.2374 51.9912 86.8595C45.1781 86.4573 38.8331 89.8117 32.9768 93.5201C20.1699 102.709 9.92525 115.44 4.12837 129.377C0.786497 137.786 -2.236 149.831 2.29431 159.634C5.79931 166.437 13.0752 170.05 21.7562 169.294C27.8446 168.633 35.2068 166.601 40.1584 165.374C45.1102 164.145 70.4565 155.146 78.7846 170.808C78.7846 170.808 81.554 165.256 88.4749 165.137C94.1649 164.595 102.374 166.838 108.351 171.373C106.36 168.279 100.713 163.721 96.0031 160.579Z" fill="#E61A27"/>
<path d="M56.3001 108.023C51.5594 104.811 42.0313 110.952 34.3997 121.487C27.421 130.936 24.4076 141.918 27.6872 146.997C32.5654 152.972 41.6219 144.28 45.4732 139.628L45.9701 139.084C48.5891 136.179 50.6122 132.683 52.571 129.328C52.571 129.328 54.371 126.257 54.4569 126.115C55.5694 125.903 56.9094 125.573 58.4194 125.124C58.3979 125.194 52.6422 135.186 53.2294 140.145C53.4122 141.658 53.2729 147.185 58.4976 148.862C65.4613 150.068 71.0219 144.492 75.9276 139.532C75.9276 139.532 76.7635 138.706 77.2363 138.235C77.1166 138.729 76.9607 139.389 76.9607 139.389C74.9219 146.712 77.6701 148.248 79.3891 148.815C84.5844 150.375 90.791 142.58 90.8113 142.58C90.6501 145.035 90.1797 147.066 92.686 148.697C95.0513 149.571 97.4454 148.238 99.2654 146.986C105.82 142.215 111.101 134.747 115.366 128.292H112.645C112.613 128.292 105.932 138.294 101.593 140.467C101.587 140.467 100.797 140.886 100.342 140.555C99.7788 140.059 100.001 139.027 100.349 138.296C100.371 138.249 117.1 108.282 117.1 108.282H109.201C109.201 108.282 108.339 109.723 108.268 109.818C108.215 109.771 108.089 109.523 108.001 109.404C103.107 102.413 92.0251 113.167 83.6816 125.638C80.4694 130.433 76.3797 135.833 72.1391 139.73C72.1391 139.73 65.8566 145.677 63.1726 141.404C62.1913 139.609 62.4932 136.984 63.0466 135.26C66.1719 126.071 71.5572 117.732 77.6857 112.701C79.4154 111.308 81.296 110.906 82.2288 111.496C83.1182 112.04 83.2616 113.386 82.6991 114.307C81.2719 114.26 80.1282 114.708 79.1988 115.7C77.3676 117.684 76.7313 119.598 77.3135 121.393C80.1419 125.55 85.7829 117.33 85.5101 112.323C85.4126 110.527 84.4854 108.827 83.101 107.999C81.0382 106.725 77.8913 107.055 75.8547 108.071C73.1282 109.134 68.8129 112.842 66.2938 115.724C63.1226 119.338 57.6835 123.353 55.9829 122.904C56.5388 121.368 61.1329 111.66 56.3001 108.023ZM94.3816 122.384C95.9182 120.188 100.39 114.306 101.481 113.315C105.148 109.983 106.613 111.449 106.74 112.487C103.318 118.817 99.2788 126.069 95.4813 132.589C95.4891 132.566 94.2929 134.455 94.2929 134.455C92.6157 137.099 90.9269 139.367 88.1722 140.949C87.7794 141.069 87.1319 141.116 86.701 140.784C86.1822 140.43 85.9776 139.839 86.036 139.225C86.2013 137.194 88.2032 130.983 94.3816 122.384ZM51.4113 126.187C51.4113 126.187 51.3422 126.4 51.3085 126.47C51.2997 126.47 47.8644 132.257 47.8644 132.257C45.7913 135.115 43.2029 138.706 39.9672 140.43C39.0082 140.76 37.6822 140.974 37.0066 140.1C35.5744 138.328 36.3126 135.872 36.9122 133.888L37.1247 133.179C38.8441 128.361 41.5719 124.109 44.2276 120.164C44.2607 120.141 44.3351 120.117 44.3619 120.117C44.3685 120.141 44.3791 120.141 44.3835 120.188C46.0497 123.494 49.1741 125.029 51.5107 125.739C51.5247 125.739 51.5401 125.762 51.5401 125.81C51.5404 125.88 51.5022 125.975 51.4113 126.187ZM54.6657 119.362C54.6504 119.409 53.1357 122.999 53.1357 122.999C52.9166 123.188 52.5704 123.094 52.1735 122.999L51.4935 122.88C49.3582 122.196 47.7476 120.731 47.251 118.983C46.5663 115.582 49.3797 112.913 50.6191 111.945C51.8085 111.094 53.6576 110.645 54.7313 111.519C55.3935 112.323 55.6444 113.362 55.6444 114.496C55.6447 116.031 55.186 117.755 54.6657 119.362ZM154.522 130.321C153.76 128.62 151.952 127.534 150.025 127.651C143.768 128.242 137.648 133.557 134.434 141.186C132.748 145.107 131.828 148.343 131.224 153.492C133.17 151.178 137.139 147.375 141.643 145.296C141.643 145.296 142.255 140.36 145.38 135.966C146.563 134.147 148.929 131.218 151.586 131.997C153.908 132.801 153.092 139.438 150.006 145.862C147.723 150.587 144.229 155.312 140.694 158.571C137.569 161.311 132.945 164.618 128.899 162.067C126.351 160.509 125.052 157.248 125.326 153.044C126.543 141.116 131.801 130.959 139.324 119.385C147.082 108.638 155.633 97.6068 167.153 91.7244C169.503 90.4963 171.678 90.2129 173.559 90.9688C173.559 90.9688 162.746 97.1101 157.591 108.472C156.28 111.354 154.456 115.25 156.293 118.699C157.252 120.494 158.956 120.636 160.328 120.542C166.647 119.029 170.729 112.936 174.064 107.362C175.998 103.134 177.717 98.9292 177.717 94.2522C177.717 93.6854 177.688 92.9299 177.642 92.3625C180.66 90.7096 186.851 93.638 186.851 93.638C191.688 95.2921 201.988 103.442 205.462 105C207.157 102.969 209.942 99.8984 211.51 98.3627L209.24 96.9216C205.605 94.6304 201.764 92.457 197.983 90.3078C189.396 85.4662 182.406 87.1665 178.848 88.4894C177.45 89.0087 176.173 89.4577 176.173 89.4577C173.533 86.4816 169.203 86.7643 166.013 87.568C154.539 90.9691 143.887 99.2597 132.467 113.645C124.071 124.912 118.863 134.644 116.087 144.257C113.947 150.729 113.297 160.248 118.519 165.894C122.959 170.688 128.847 169.649 133.005 167.925C142.013 163.343 150.11 153.469 154.144 142.107C155.118 138.73 156.198 133.959 154.522 130.321ZM175.237 94.725C174.044 108.85 163.413 117.142 160.783 117.802C159.189 118.132 156.469 117.401 158.897 111.473C162.473 103.488 168.578 96.7096 175.128 93.2371C175.288 93.8278 175.283 94.2047 175.237 94.725ZM238.298 96.5195C232.58 99.8742 226.652 102.047 219.476 101.291C217.488 103.606 215.551 105.992 213.767 108.448C223.838 111.094 234.515 105.212 240.47 99.6147C246.77 93.9691 250 86.8599 250 86.8599C250 86.8599 245.278 92.4338 238.298 96.5195ZM130.228 108.282H122.727L118.495 115.383H125.995L130.228 108.282Z" fill="#E61A27"/>
<path d="M219.447 161.236C218.64 161.803 217.507 161.367 217.93 160.068C218.986 156.761 223.182 150.022 223.182 150.022L234.868 128.615H226.863C226.482 129.261 225.669 130.743 225.669 130.743C225.299 130.106 224.191 128.689 223.735 128.383C221.78 127.107 218.911 127.71 216.931 128.867C208.325 134.064 202.046 144.333 197.094 152.341C197.094 152.341 191.881 161.242 188.988 161.904C186.729 162.093 186.962 158.95 187.06 158.218C187.933 152.926 189.962 147.895 192.005 143.336C196.162 140.36 200.905 136.463 205.216 132.188C214.572 122.951 222.459 112.488 223.612 110.149C223.612 110.149 222.364 110.409 220.891 110.456C213.693 120.826 198.964 135.896 194.499 138.14C196.477 133.225 209.258 109.771 220.133 98.5515L221.845 96.8502C224.492 94.1811 227.233 91.4412 229.37 90.9923C229.596 90.9687 229.887 90.9923 230.137 91.5365C230.233 93.6147 229.484 95.1503 228.624 96.898L227.42 99.4494C227.42 99.4494 229.126 99.1185 230.247 98.7396C231.546 96.2134 232.986 93.3781 232.455 90.0011C232.278 88.9144 231.517 88.0879 230.521 87.8987C227.277 87.261 223.741 89.7403 220.896 91.7488L220.781 91.8192C206.156 103.653 193.806 120.707 183.008 143.997C182.226 144.611 179.202 145.344 178.689 144.989C179.755 142.722 181.097 139.674 181.769 136.367C181.885 135.422 181.993 134.454 181.993 133.51C181.993 131.477 181.521 129.564 179.758 128.242C177.69 127.179 175.135 127.675 173.412 128.478C165.694 131.785 159.926 139.958 155.763 146.689C153.524 150.965 151.292 155.546 150.674 160.79C150.238 164.9 151.125 167.545 153.387 168.868C155.713 170.096 158.642 168.82 159.792 168.206C167.611 163.955 173.074 155.428 177.381 147.633C177.552 147.61 179.903 147.539 181.682 147.066C181.705 147.066 181.715 147.066 181.755 147.091C181.653 147.444 180.734 150.279 180.734 150.279C178.004 158.546 176.742 164.168 179.32 167.498C183.004 172.199 189.104 167.333 194.065 160.907C193 168.607 196.864 169.813 199.81 169.223C203.193 168.278 206.963 164.545 208.713 162.633C208.151 164.876 208.304 168.893 211.382 169.293C213.491 169.696 215.07 168.511 216.897 167.495C223.45 163.81 231.294 151.53 233.33 147.98H230.66C227.765 152.499 224.081 158.424 219.447 161.236ZM160.628 160.414C160.213 159.776 160.075 159.078 160.061 158.324C159.982 153.693 164.807 145.399 168.212 140.88H168.219C169.646 144.108 172.878 146.182 174.829 147.057C172.406 152.631 164.096 164.571 160.628 160.414ZM176.197 144.564C175.966 144.731 171.891 143.313 171.103 139.415C170.435 136.06 172.672 133.438 174.836 132.117C175.765 131.36 177.165 131.102 178.191 131.478C179.144 132.141 179.402 133.322 179.402 134.596C179.402 135.377 179.302 136.179 179.213 136.911L179.194 137.077C178.511 139.696 177.504 142.212 176.197 144.564ZM208.883 158.926C208.88 158.926 208.11 159.634 208.11 159.634C207.01 160.65 205.879 161.736 204.513 161.192C204.136 161.051 203.871 160.532 203.807 160.129C203.745 157.224 205.012 154.531 206.24 151.91L206.555 151.225C210.089 145.131 214.197 137.95 220.229 132.967C221.246 132.209 222.349 131.573 223.513 132.069C223.781 132.329 224.093 132.778 224.093 133.226C224.093 133.368 223.97 133.746 223.9 133.864C222.215 136.676 220.611 139.628 219.05 142.462C216.001 148.06 212.837 153.846 208.883 158.926Z" fill="#E61A27"/>
</g>
<defs>
<clipPath id="clip0_77_39">
<rect width="250" height="258.201" fill="white"/>
</clipPath>
</defs>
</svg>
