<svg width="46" height="45" viewBox="0 0 46 45" fill="none" xmlns="http://www.w3.org/2000/svg">
<path fill-rule="evenodd" clip-rule="evenodd" d="M23.4308 0.937511C12.8476 0.926747 3.82131 8.59902 2.1268 19.0457C0.432291 29.4924 6.57066 39.6246 16.6147 42.9596C17.7 43.1582 18.0838 42.4832 18.0838 41.9139C18.0838 41.3449 18.0838 40.0477 18.0838 38.2477C12.0617 39.5582 10.7912 35.3492 10.7912 35.3492C10.3916 34.0447 9.54289 32.9241 8.39556 32.1861C6.44996 30.8625 8.55439 30.8625 8.55439 30.8625C9.9363 31.0577 11.1516 31.8776 11.85 33.0861C12.4414 34.1586 13.4356 34.9511 14.6129 35.289C15.7901 35.6267 17.0534 35.4817 18.1235 34.8861C18.2066 33.7972 18.676 32.7739 19.447 32.0008C14.6558 31.4582 9.62644 29.6051 9.62644 21.4125C9.59355 19.2724 10.3849 17.2015 11.8367 15.6287C11.1901 13.7678 11.2657 11.7321 12.0485 9.92427C12.0485 9.92427 13.8617 9.34192 17.9779 12.1346C21.5125 11.1641 25.2432 11.1641 28.778 12.1346C32.8942 9.34192 34.6942 9.92427 34.6942 9.92427C35.4878 11.7129 35.5822 13.7341 34.9587 15.589C36.4105 17.1618 37.202 19.2326 37.1692 21.3727C37.1692 29.6582 32.1265 31.4713 27.322 31.9611C28.3643 33.0088 28.9004 34.4576 28.7911 35.9316C28.7911 38.817 28.7911 41.1463 28.7911 41.8477C28.7911 42.5492 29.1749 43.092 30.2735 42.8801C40.1982 39.4588 46.2162 29.3865 44.5259 19.0254C42.8356 8.66456 33.9284 1.0271 23.4308 0.937511Z" fill="white"/>
</svg>
