<svg width="46" height="45" viewBox="0 0 46 45" fill="none" xmlns="http://www.w3.org/2000/svg">
<path d="M31.5376 40.0781H14.6626C12.2384 40.0781 9.9134 39.1151 8.1992 37.4009C6.485 35.6867 5.52197 33.3617 5.52197 30.9375V14.0625C5.52197 11.6383 6.485 9.3133 8.1992 7.5991C9.9134 5.8849 12.2384 4.92188 14.6626 4.92188H31.5376C33.9618 4.92188 36.2868 5.8849 38.001 7.5991C39.7152 9.3133 40.6782 11.6383 40.6782 14.0625V30.9375C40.6782 33.3617 39.7152 35.6867 38.001 37.4009C36.2868 39.1151 33.9618 40.0781 31.5376 40.0781ZM14.6626 6.32812C12.6113 6.32812 10.644 7.14299 9.19357 8.59347C7.74309 10.0439 6.92822 12.0112 6.92822 14.0625V30.9375C6.92822 32.9888 7.74309 34.9561 9.19357 36.4065C10.644 37.857 12.6113 38.6719 14.6626 38.6719H31.5376C33.5889 38.6719 35.5562 37.857 37.0066 36.4065C38.4571 34.9561 39.272 32.9888 39.272 30.9375V14.0625C39.272 12.0112 38.4571 10.0439 37.0066 8.59347C35.5562 7.14299 33.5889 6.32812 31.5376 6.32812H14.6626Z" fill="white"/>
<path d="M23.1 30.7054C21.4771 30.7054 19.8907 30.2241 18.5413 29.3225C17.1919 28.4209 16.1402 27.1394 15.5191 25.64C14.8981 24.1406 14.7356 22.4908 15.0522 20.8991C15.3688 19.3074 16.1503 17.8453 17.2979 16.6978C18.4454 15.5502 19.9075 14.7687 21.4992 14.4521C23.0909 14.1355 24.7407 14.298 26.2401 14.919C27.7395 15.5401 29.021 16.5918 29.9226 17.9412C30.8242 19.2906 31.3055 20.877 31.3055 22.4999C31.3036 24.6756 30.4385 26.7616 28.9001 28.3C27.3617 29.8384 25.2757 30.7035 23.1 30.7054ZM23.1 15.7077C21.7549 15.7077 20.4401 16.1067 19.3218 16.8541C18.2036 17.6015 17.3321 18.6638 16.8177 19.9066C16.3033 21.1494 16.169 22.5169 16.4319 23.836C16.6949 25.1551 17.3431 26.3666 18.2947 27.3172C19.2463 28.2678 20.4585 28.9148 21.7779 29.1764C23.0972 29.4379 24.4646 29.3023 25.7068 28.7866C26.9491 28.2709 28.0105 27.3983 28.7568 26.2793C29.503 25.1602 29.9006 23.845 29.8992 22.4999C29.8974 20.6972 29.1804 18.9689 27.9057 17.6942C26.631 16.4195 24.9027 15.7025 23.1 15.7007V15.7077Z" fill="white"/>
<path d="M31.8892 14.7656C31.4024 14.7656 30.9266 14.6213 30.5219 14.3509C30.1172 14.0805 29.8018 13.6961 29.6156 13.2464C29.4293 12.7968 29.3806 12.302 29.4755 11.8246C29.5705 11.3472 29.8048 10.9087 30.149 10.5645C30.4932 10.2204 30.9317 9.98599 31.4091 9.89104C31.8864 9.79608 32.3812 9.84482 32.8309 10.0311C33.2806 10.2173 33.6649 10.5328 33.9354 10.9375C34.2058 11.3422 34.3501 11.818 34.3501 12.3047C34.3501 12.9574 34.0908 13.5833 33.6293 14.0448C33.1678 14.5064 32.5418 14.7656 31.8892 14.7656ZM31.8892 11.25C31.6806 11.25 31.4766 11.3119 31.3032 11.4277C31.1298 11.5436 30.9946 11.7084 30.9148 11.9011C30.8349 12.0938 30.814 12.3059 30.8547 12.5104C30.8954 12.715 30.9959 12.903 31.1434 13.0505C31.2909 13.198 31.4788 13.2984 31.6834 13.3391C31.888 13.3798 32.1001 13.3589 32.2928 13.2791C32.4855 13.1993 32.6502 13.0641 32.7661 12.8906C32.882 12.7172 32.9438 12.5133 32.9438 12.3047C32.9438 12.025 32.8327 11.7567 32.6349 11.5589C32.4371 11.3611 32.1689 11.25 31.8892 11.25Z" fill="white"/>
</svg>
