<svg width="46" height="45" viewBox="0 0 46 45" fill="none" xmlns="http://www.w3.org/2000/svg">
<path d="M34.9297 34.3829H29.9291V26.55C29.9291 24.6825 29.8953 22.2779 27.3275 22.2779C24.7231 22.2779 24.3238 24.3141 24.3238 26.4122V34.3829H19.3231V18.2757H24.1241V20.4779H24.1916C25.1703 18.8072 26.9928 17.806 28.9278 17.8763C33.9959 17.8763 34.9325 21.2091 34.9325 25.5488L34.9297 34.38V34.3829ZM13.6813 16.0735C12.9131 16.0698 12.1774 15.7632 11.6339 15.2203C11.0905 14.6774 10.7832 13.942 10.7787 13.1738C10.7787 11.5819 12.0894 10.2713 13.6813 10.2713C15.2731 10.2713 16.5809 11.5819 16.5838 13.1738C16.5838 14.7657 15.2731 16.0763 13.6813 16.0763V16.0735ZM16.1816 34.3829H11.1753V18.2757H16.1816V34.3829ZM37.4187 5.62504H8.66094C8.00886 5.62125 7.38164 5.87496 6.91557 6.33102C6.44949 6.78709 6.18224 7.40866 6.17188 8.06067V36.9394C6.18224 37.5914 6.44949 38.213 6.91557 38.6691C7.38164 39.1251 8.00886 39.3788 8.66094 39.375H37.4216C38.0751 39.3803 38.7044 39.1275 39.1726 38.6714C39.6408 38.2153 39.91 37.5929 39.9219 36.9394V8.05785C39.91 7.40487 39.6406 6.78303 39.1722 6.32785C38.7039 5.87268 38.0746 5.62107 37.4216 5.62785L37.4187 5.62504Z" fill="white"/>
</svg>
