<svg width="250" height="259" viewBox="0 0 250 259" fill="none" xmlns="http://www.w3.org/2000/svg">
<path d="M131.257 108.967C130.988 109.471 130.836 110.035 130.836 111.014V137.947H130.74C130.74 137.947 121.224 111.666 120.764 110.451C120.439 109.589 120.075 108.996 119.596 108.551C119.117 108.137 118.619 107.87 117.663 107.87H114.523C113.794 107.87 113.336 108.254 113.01 108.849C112.742 109.352 112.588 109.917 112.588 110.895V149.071C112.588 150.051 112.742 150.614 113.01 151.119C113.336 151.711 113.794 152.096 114.523 152.096H116.303C117.03 152.096 117.49 151.711 117.816 151.119C118.083 150.614 118.237 150.051 118.237 149.071V121.484H118.333C118.333 121.484 128.212 148.596 128.615 149.605C129.17 151.028 130.108 152.096 131.448 152.096H134.493C135.22 152.096 135.68 151.711 136.006 151.119C136.273 150.614 136.426 150.051 136.426 149.071V114.632H176.425C176.828 114.632 177.133 114.455 177.363 114.159C177.612 113.802 177.727 113.326 177.727 112.616V110.005C177.727 109.293 177.612 108.818 177.363 108.462C177.133 108.166 176.828 107.987 176.425 107.987H132.77C132.042 107.987 131.583 108.374 131.257 108.967ZM148.719 119.17C142.075 119.17 138.341 127.21 138.341 135.694C138.341 144.741 142.344 152.691 148.757 152.691C151.955 152.691 155.095 150.822 156.894 147.528C157.68 146.105 158.312 144.117 158.312 142.902C158.312 142.486 158.254 142.13 158.102 141.864C157.949 141.567 157.718 141.388 157.316 141.388H154.233C153.62 141.388 153.2 141.744 152.893 142.456C151.993 144.504 150.691 145.571 148.776 145.571C145.904 145.571 144.048 142.189 143.913 138.481H157.24C157.833 138.481 158.254 138.273 158.541 137.83C158.867 137.355 159.02 136.672 159.02 135.396C159.02 131.511 158.235 127.477 156.589 124.391C154.904 121.276 152.338 119.17 148.719 119.17ZM169.263 119.17C164.018 119.17 160.571 123.027 160.571 129.197C160.571 131.391 161.088 133.172 161.931 134.565C162.908 136.199 164.305 137.325 166.335 138.126L170.719 139.846C171.925 140.321 172.997 140.884 172.997 142.515C172.997 145.038 171.274 145.897 169.437 145.897C168.536 145.897 167.598 145.63 166.832 145.038C166.296 144.621 165.837 144.029 165.512 143.228C165.224 142.545 165.129 142.04 164.688 141.655C164.419 141.418 164.094 141.388 163.654 141.388H161.28C160.763 141.388 160.514 141.626 160.342 141.952C160.17 142.278 160.111 142.753 160.111 143.228C160.111 144.413 160.38 145.897 161.012 147.232C162.467 150.257 165.512 152.691 169.397 152.691C173.228 152.691 178.532 150.227 178.532 142.278C178.532 140.232 178.148 138.481 177.439 137.058C176.54 135.248 175.258 134.002 173.074 133.142L168.729 131.421C166.928 130.71 166.085 130.206 166.085 128.484C166.085 126.824 167.043 125.489 169.263 125.489C170.566 125.489 171.753 125.934 172.52 127.181C173.15 128.219 173.037 128.753 173.535 129.167C173.84 129.405 174.184 129.405 174.722 129.405H176.885C177.229 129.405 177.479 129.317 177.669 128.989C177.823 128.722 177.918 128.308 177.918 127.624C177.918 126.082 177.267 124.095 176.119 122.582C174.587 120.534 172.175 119.17 169.263 119.17ZM181.192 120.299H180.121C179.719 120.299 179.412 120.475 179.183 120.772C178.933 121.129 178.818 121.604 178.818 122.315V124.362C178.818 125.075 178.933 125.548 179.183 125.905C179.412 126.201 179.719 126.38 180.121 126.38H181.192V141.18C181.192 144.977 181.863 147.35 183.107 149.25C184.256 150.999 185.75 152.096 188.354 152.096H189.981C190.384 152.096 190.689 151.92 190.92 151.623C191.168 151.266 191.321 150.791 191.321 150.08V147.499C191.321 146.786 191.168 146.314 190.92 145.956C190.689 145.66 190.384 145.481 189.981 145.481H189.751C188.717 145.481 188.009 145.067 187.53 144.354C186.956 143.524 186.669 142.248 186.669 140.588V126.38H190.154C190.556 126.38 190.863 126.201 191.092 125.905C191.34 125.548 191.455 125.075 191.455 124.362V122.315C191.455 121.604 191.34 121.129 191.092 120.772C190.863 120.475 190.556 120.299 190.154 120.299H186.688V110.628C186.688 109.856 186.534 109.293 186.305 108.849C186.017 108.315 185.616 107.987 185.023 107.987H182.859C182.264 107.987 181.863 108.315 181.575 108.849C181.346 109.293 181.192 109.856 181.192 110.628V120.299ZM192.911 149.456C192.911 150.227 193.063 150.791 193.294 151.236C193.58 151.77 193.983 152.096 194.576 152.096H196.854C197.449 152.096 197.85 151.77 198.138 151.236C198.367 150.791 198.521 150.227 198.521 149.456V110.63C198.521 109.858 198.367 109.295 198.138 108.849C197.85 108.315 197.449 107.987 196.854 107.987H194.576C193.983 107.987 193.58 108.315 193.294 108.849C193.063 109.295 192.911 109.858 192.911 110.63V149.456ZM143.951 132.163C144.2 128.514 146 125.785 148.738 125.785C151.419 125.785 153.276 128.514 153.525 132.163H143.951ZM219.257 114.632C219.659 114.632 219.965 114.455 220.195 114.159C220.444 113.802 220.56 113.326 220.56 112.616V109.856C220.56 108.788 220.425 108.254 220.195 107.87C219.984 107.512 219.64 107.306 219.257 107.306C218.95 107.306 218.645 107.365 218.128 107.453L202.848 109.797C202.408 109.856 202.198 110.064 202.044 110.331C201.872 110.628 201.795 111.014 201.795 111.548V113.089C201.795 113.684 201.872 113.951 202.006 114.188C202.177 114.485 202.427 114.632 202.772 114.632H219.257ZM210.813 119.17C204.169 119.17 200.435 127.21 200.435 135.694C200.435 144.741 204.438 152.691 210.851 152.691C214.05 152.691 217.189 150.822 218.988 147.528C219.774 146.105 220.406 144.117 220.406 142.902C220.406 142.486 220.348 142.13 220.195 141.864C220.043 141.567 219.812 141.388 219.41 141.388H216.328C215.714 141.388 215.294 141.744 214.987 142.456C214.088 144.504 212.785 145.571 210.87 145.571C207.998 145.571 206.141 142.189 206.008 138.481H219.372C219.965 138.481 220.387 138.273 220.674 137.83C220.999 137.355 221.153 136.672 221.153 135.396C221.153 131.511 220.367 127.477 218.721 124.391C217.036 121.276 214.432 119.17 210.813 119.17ZM206.046 132.163C206.295 128.514 208.094 125.785 210.832 125.785C213.514 125.785 215.37 128.514 215.619 132.163H206.046ZM90.9935 114.988C86.037 103.534 81.6816 99.6743 80.4563 97.8581C79.1104 95.8549 78.0846 93.5848 77.4319 92.4917C75.9801 90.0345 74.1009 87.0013 71.0101 87.0013C68.0264 87.0013 66.0549 90.0135 65.4145 92.6158C65.2286 93.3578 65.082 94.2658 64.9491 94.5958C64.656 95.3399 63.3371 98.8272 62.7903 100.21H65.2557L64.0563 103.719C65.4552 103.244 66.4538 102.893 67.7862 102.893C68.9721 102.893 69.8242 103.328 70.1973 104.482C70.8907 106.63 70.8907 113.129 72.063 118.023C73.1552 122.622 75.82 127.122 78.8173 130.57C78.8565 130.611 78.9029 130.632 78.9502 130.631C79.0968 130.631 79.1904 130.467 79.1904 130.301C79.1904 130.177 79.1633 130.095 79.0968 129.992C76.5921 126.111 74.5541 121.819 73.4619 117.115C72.3818 112.532 72.5555 106.092 71.6098 103.222C70.9829 101.324 69.6519 100.83 68.4253 100.83C67.4402 100.83 66.5203 101.139 66.0943 101.282L67.1729 98.4551H65.348C65.7347 97.4041 66.1336 96.433 66.3344 95.8549C66.5067 95.3588 66.5746 94.741 66.7876 93.8959C67.4796 91.1906 69.0114 89.4774 71.0101 89.4774C73.5148 89.4774 74.9801 91.9747 76.432 94.4719C77.0982 95.628 78.1904 98.0432 79.4564 99.8383C80.322 101.076 81.9746 102.46 84.5187 106.527C85.9841 108.879 87.6896 111.933 89.4874 116.02C95.9229 130.61 100.145 143.468 102.504 153.499L102.464 153.541C95.7099 146.44 89.8605 139.732 85.1455 131.457C81.8009 125.575 78.8973 118.765 76.3655 110.075C76.1918 109.497 76.0466 108.961 75.8865 108.404C75.82 108.177 75.7535 108.114 75.6463 108.114C75.5134 108.114 75.4198 108.259 75.4198 108.465C75.4198 108.692 75.4863 109.188 75.6328 110.178C76.9788 119.177 80.7087 127.246 84.6924 133.954C88.6625 140.622 93.1509 146.358 96.8414 150.528L99.7193 163.281C99.7858 163.593 99.8658 163.923 99.8658 164.232C99.8658 164.459 99.8251 164.643 99.7329 164.767C99.6528 164.891 99.547 164.955 99.3068 164.955H98.4412C98.068 164.955 97.9201 164.87 97.7871 164.707C97.6542 164.54 97.562 164.292 97.4941 164.004C97.2417 162.806 95.7221 156.099 95.4303 154.737C95.3761 154.491 95.2825 154.407 95.1766 154.407C95.1468 154.406 95.1173 154.415 95.0897 154.433C95.0621 154.45 95.0371 154.476 95.016 154.509C94.9949 154.541 94.9782 154.58 94.9669 154.623C94.9556 154.666 94.9499 154.712 94.9501 154.758C94.9501 154.924 94.9894 155.109 95.0572 155.687C95.4426 158.741 95.8957 162.167 96.0816 163.468C96.163 164.065 96.2553 164.625 96.2553 165.037C96.2553 165.407 96.2024 165.615 96.003 165.924L95.1101 167.328C94.8971 167.658 94.7764 167.74 94.604 167.74C94.391 167.74 94.2174 167.513 94.1373 166.935C93.1251 159.607 91.5932 150.528 91.193 148.008C91.0993 147.453 91.0329 147.142 90.8198 147.142C90.6339 147.142 90.5675 147.348 90.5675 147.596C90.5675 147.781 90.5932 148.008 90.6068 148.174C90.847 150.774 91.8198 160.248 92.8714 168.896C93.0586 170.382 93.4182 171.206 94.2445 171.206C94.6176 171.206 94.9758 170.979 95.3096 170.485C95.8564 169.638 96.0152 169.411 96.6692 168.421C97.1345 167.719 97.4548 167.431 98.2539 167.431H100.225C100.692 167.431 100.945 167.246 101.171 166.914C101.384 166.605 101.517 166.172 101.517 165.552C101.517 164.913 101.411 164.398 101.265 163.756C100.759 161.652 99.1331 154.531 98.6528 152.53L98.6936 152.488C100.358 154.449 102.783 156.946 103.85 156.946C104.182 156.946 104.383 156.719 104.383 155.914C104.383 152.118 100.305 136.493 90.9935 114.988ZM45.2588 91.005C45.5383 90.0549 46.1516 89.3948 46.8843 89.3948C47.8829 89.3948 48.6821 90.593 48.6821 92.1821C48.6821 93.1091 48.4026 93.9163 47.963 94.4103C48.0566 94.9484 48.1231 95.4213 48.1231 95.8753C48.1231 97.6095 47.4569 98.8266 46.2317 99.4678C46.0716 100.519 45.7785 101.469 45.2982 102.171C44.499 103.367 43.6862 103.367 43.6862 103.863C43.6862 104.132 43.807 104.296 44.1395 104.296C45.6184 104.296 47.0702 103.018 47.2439 100.891C48.6563 100.149 49.5084 97.9395 49.5084 96.1864C49.5084 95.7303 49.4813 95.3394 49.3619 94.9694C49.7486 94.3892 50.2018 93.3991 50.2018 91.934C50.2018 90.6539 49.8409 89.3549 49.2018 88.4048C48.6428 87.5577 47.8558 87.0006 46.9372 87.0006C45.6048 87.0006 44.7391 88.1168 44.2466 89.2099C42.7934 89.2099 40.9156 91.707 40.9156 95.2783H40.7161C40.5818 94.0403 39.7569 93.2121 39.0635 93.1512C38.5045 90.551 37.2386 88.3228 35.1599 88.3228C34.9211 88.3228 34.6281 88.3439 34.3743 88.4048C33.7624 87.5367 33.0826 87.0006 32.1369 87.0006C30.3242 87.0006 28.8452 89.2519 28.8452 92.098C28.8452 93.8742 29.3649 95.0913 30.3513 96.1654C30.3513 96.1654 30.3377 96.3925 30.3377 96.4955C30.3377 98.7657 31.9361 102.316 34.3078 102.316C34.3078 102.892 34.7746 103.678 35.2942 103.821V104.111H35.0935C31.8303 104.111 30.4449 106.547 30.4449 108.176C29.4721 108.796 28.8452 110.468 28.8452 112.015C28.8452 115.09 30.2984 117.278 32.2169 117.278C32.856 117.278 33.5086 116.887 33.9618 116.349C34.2943 116.534 34.7203 116.637 35.1599 116.637C36.0798 116.637 37.1056 116.143 37.8248 114.512C37.9319 114.533 38.0242 114.533 38.1314 114.533C39.3037 114.533 40.3159 113.335 40.8491 111.767C40.9821 111.376 41.035 111.067 41.035 110.838C41.035 110.613 40.9685 110.425 40.822 110.425C40.6361 110.425 40.6089 110.695 40.2765 111.17C39.5303 112.223 38.3837 112.614 37.2114 112.614C36.6388 113.915 35.9333 114.596 35.1206 114.596C34.5209 114.596 34.0554 114.348 33.5751 113.852C33.1884 114.512 32.7095 114.781 32.2427 114.781C31.1912 114.781 30.4449 113.646 30.4449 111.994C30.4449 110.838 30.9239 109.808 31.5901 109.414C31.7095 107.371 33.122 105.988 34.8804 105.988C35.107 105.988 35.3336 106.009 35.5737 106.051C35.8397 105.391 36.4788 104.689 37.3851 104.502C37.5724 104.462 37.7176 104.441 37.8248 104.359C37.9319 104.275 37.9848 104.111 37.9848 103.924C37.9848 103.76 37.9441 103.615 37.8383 103.512C37.7447 103.43 37.5846 103.39 37.3987 103.327C36.5588 103.079 35.5602 102.274 35.0541 100.313C33.0419 100.313 31.5629 97.8155 31.5629 95.0093V94.8243C30.8967 94.4102 30.4449 93.4202 30.4449 92.2431C30.4449 90.696 31.2305 89.4579 32.2291 89.4579C32.8289 89.4579 33.3486 89.9119 33.6823 90.5929C33.9618 90.4689 34.2807 90.4269 34.5873 90.4269C36.0798 90.4269 37.6782 91.892 37.9848 94.7403C39.9034 95.0093 40.3566 97.5276 40.476 98.5807C40.5425 99.1167 40.5954 99.5706 40.822 99.5706C41.0621 99.5706 41.1151 99.1566 41.1951 98.5996C41.3416 97.5486 41.5954 96.7015 42.1015 96.0415C42.1015 93.3362 43.4067 91.005 45.2588 91.005ZM49.1353 107.185C48.5085 108.569 48.0566 109.25 46.6306 111.85C44.7527 115.297 43.7663 118.084 42.1273 124.275C42.3946 124.233 42.7812 124.193 43.2073 124.193C43.4203 124.193 43.5926 124.193 43.8735 124.212L44.073 123.552C44.9929 120.498 46.2303 116.369 47.963 113.191L48.5627 112.098C50.3469 108.859 51.4528 106.937 52.1461 102.521C52.3863 100.953 52.5857 99.5509 53.2655 98.5377C53.8774 97.6297 54.6508 97.2387 55.4364 97.2387C56.1026 97.2387 56.5965 97.4868 57.3157 97.9597C57.9683 98.3928 58.2071 98.4768 58.9004 98.4768C59.1406 98.4768 59.3129 98.4557 59.473 98.4347L58.5409 100.375L59.8068 101.758C58.2207 102.479 57.3822 104.854 57.1013 105.947C57.0484 106.174 57.0226 106.319 57.0226 106.464C57.0226 106.63 57.0755 106.795 57.2356 106.795C57.4079 106.795 57.5409 106.588 57.7675 106.174C58.5409 104.73 59.1542 103.738 62.0035 102.357L59.9927 100.003L61.511 96.5577H60.0863C59.1799 96.5577 58.5802 96.5366 57.7946 95.9796C56.7282 95.2166 56.1827 94.8865 55.237 94.8865C54.0782 94.8865 53.0253 95.5255 52.1597 96.7636C51.1597 98.1867 50.8531 100.087 50.4949 102.172C50.214 103.78 49.8816 105.556 49.1353 107.185Z" fill="#939CA1"/>
<path d="M52.1992 121.24C51.4394 122.829 50.4001 124.912 49.6009 127.122C49.8546 127.309 50.6945 128.011 50.9875 128.257C51.9061 126.111 53.1856 123.471 54.0241 121.467C54.784 119.651 55.0906 118.867 55.1435 116.431C55.1571 116.019 55.1571 115.626 55.1829 115.235C55.2494 113.976 55.4637 112.696 56.2358 111.521C56.8084 110.631 57.6347 110.179 58.461 110.179C59.2602 110.179 59.7256 110.528 60.4189 110.528C60.9114 110.528 61.271 110.343 61.5912 110.159L61.8449 110.013L61.2317 112.286L62.6699 113.192C61.7513 114.079 59.7391 117.898 59.7391 122.417C59.7391 124.049 59.8992 125.554 60.1258 126.895C60.153 127.04 60.2059 127.185 60.3524 127.185C60.4854 127.185 60.579 127.061 60.5926 126.834L60.6062 126.359C60.6455 124.976 60.712 122.79 61.0715 120.828C61.6713 117.526 63.2832 114.43 64.8951 112.944L62.6034 111.397L63.5898 107.661L62.5111 108.012C61.8585 108.218 61.3782 108.403 60.8056 108.403C60.4325 108.403 60.0064 108.321 59.5003 108.134C59.1136 107.991 58.6998 107.867 58.115 107.867C57.0621 107.867 55.9292 108.485 55.1571 109.641C53.7447 111.727 53.6646 113.976 53.571 115.979C53.4516 118.64 53.1313 119.3 52.1992 121.24ZM86.3838 122.499C86.2902 122.314 86.2101 122.23 86.1043 122.23C85.9442 122.23 85.8642 122.396 85.8642 122.581C85.8642 122.871 85.9971 123.222 86.3309 124.09C87.3431 126.751 88.5955 129.434 90.1409 131.954C91.8057 134.697 93.7637 137.255 95.8559 139.546L96.5085 140.248C96.6021 140.354 96.6686 140.415 96.7487 140.415C96.8816 140.415 96.9753 140.209 96.9753 140.042C96.9753 139.939 96.9481 139.834 96.8681 139.731C94.9238 136.988 92.8315 133.644 90.8736 130.426C89.3404 127.886 87.7691 125.204 86.3838 122.499ZM43.5133 113.15C43.7128 112.635 44.3125 111.376 44.5526 110.983C43.5269 107.765 41.8485 104.69 41.1158 103.471L40.5025 104.4C41.2094 105.989 42.3939 109.064 43.5133 113.15ZM33.7483 94.514C33.6276 94.3479 33.6018 94.2449 33.6018 94.1209C33.6018 93.9779 33.6682 93.8119 33.8148 93.8119C33.8677 93.8119 33.9206 93.8329 33.9885 93.8749C34.9735 94.4929 35.8134 95.216 36.5597 96.1031C37.1852 96.8451 37.7985 97.7553 38.3968 98.8484L37.8378 99.8384C37.1458 98.9493 34.9071 96.0421 33.7483 94.514ZM43.1937 101.428L42.4745 100.747C42.9399 99.0335 43.5139 97.4655 44.1923 96.2883C44.6726 95.4433 45.1258 94.7602 45.6319 94.0812C45.7513 93.9362 45.8177 93.8121 45.9371 93.8121C46.0715 93.8121 46.1651 93.9782 46.1651 94.1422C46.1651 94.2242 46.138 94.3271 46.085 94.4511C45.2723 96.4123 43.6862 100.293 43.1937 101.428ZM34.1614 111.004C33.9878 111.107 33.9077 111.17 33.8155 111.17C33.6689 111.17 33.6011 110.983 33.6011 110.838C33.6011 110.695 33.6418 110.613 33.7354 110.487C35.3731 108.506 36.8127 107.722 38.7978 107.205L39.0366 108.445L34.1614 111.004ZM68.3322 94.9891C68.3322 94.266 68.5724 92.9648 69.438 92.9648C69.7311 92.9648 70.0107 93.0678 70.2372 93.2338C70.5575 93.4609 70.7704 93.7909 70.7704 94.1419C70.7704 94.514 70.5303 94.8861 70.1707 95.3401C69.7976 95.813 69.3187 96.2482 68.932 96.2482C68.4666 96.2482 68.3322 95.565 68.3322 94.9891ZM54.8104 101.015C54.8104 100.128 55.1564 99.1569 55.8226 99.1569C56.1157 99.1569 56.4617 99.3419 56.7154 99.716C56.862 99.922 56.9284 100.147 56.9284 100.376C56.9284 100.872 56.6218 101.345 56.2622 101.675C55.9827 101.923 55.6897 102.089 55.4373 102.089C55.0235 102.089 54.8104 101.694 54.8104 101.015Z" fill="#939CA1"/>
<path d="M57.9415 113.749C57.9415 113.543 57.9551 113.295 58.008 113.047C58.1152 112.511 58.3404 111.994 58.9008 111.994C59.1545 111.994 59.4326 112.097 59.6592 112.347C59.8601 112.553 59.9401 112.82 59.9401 113.089C59.9401 113.976 58.9809 115.008 58.5005 115.008C58.1545 115.008 57.9415 114.491 57.9415 113.749ZM52.6926 139.794C50.8948 139.794 50.0942 138.474 50.0942 136.803C50.0942 133.871 53.4117 131.004 56.3954 129.228L57.1688 130.777C55.3303 131.91 51.6275 134.348 51.6275 136.452C51.6275 137.194 51.907 137.732 53.025 137.732C54.9707 137.732 57.063 136.265 58.9937 134.8C59.1403 134.697 59.314 134.594 59.4741 134.594C59.7264 134.594 59.8865 134.718 60.0724 135.13L60.3926 135.811C58.1417 137.732 55.3303 139.794 52.6926 139.794Z" fill="#939CA1"/>
<path d="M57.6486 140.58C55.8902 142.106 54.0652 143.119 52.4533 143.119C50.6541 143.119 49.0558 141.921 47.7234 138.803C47.1644 137.483 46.7248 135.833 46.1915 134.368C45.5525 132.634 44.8591 131.705 43.6475 131.705C42.5416 131.705 41.4616 132.407 40.3164 133.17L40.3693 133.563C40.4629 134.202 40.6231 134.656 41.0084 134.656C41.1821 134.656 41.3557 134.534 41.4494 134.492C42.0884 134.181 42.5538 133.912 43.2078 133.912C44.2065 133.912 44.6854 134.822 45.3652 137.05L45.6189 137.876C44.9256 138.248 43.3001 138.433 42.0884 138.433H41.5159L41.6095 139.32C41.6488 139.692 41.7424 140.001 41.9419 140.147C42.1807 140.331 42.528 140.352 43.1278 140.352C44.6461 140.352 45.7519 140.064 46.3909 139.814C48.03 143.594 50.281 145.038 52.4533 145.038C54.304 145.038 56.1832 143.985 57.9824 142.459L57.6486 140.58ZM59.46 141.508L59.1411 139.608C61.8846 137.319 64.3894 135.482 68.3866 134.883C68.4667 137.256 68.3594 140.249 69.4924 140.249C70.5304 140.249 72.7949 136.1 75.4069 130.899C75.647 131.25 76.0324 131.622 76.3797 132.034L75.7135 133.376C73.1681 138.454 70.9971 142.788 69.2115 142.788C67.5467 142.788 66.9199 139.753 66.8941 137.483C64.35 137.876 61.9511 139.196 59.46 141.508ZM94.7107 100.086C93.6713 100.086 93.3783 99.197 93.3783 97.94C93.3783 95.3398 94.4312 91.6045 95.0974 89.4773H93.4841C92.6455 91.9955 89.3417 100.065 87.5561 103.409L88.5819 105.121C89.5411 103.47 90.594 100.664 91.7392 97.8981H91.9522C91.9522 98.0431 91.94 98.2071 91.94 98.3521C91.94 100.685 92.7121 102.417 94.6171 102.417C95.7894 102.417 97.6279 101.509 99.3606 100.601C100.799 99.8381 102.118 99.0541 102.77 98.7661V96.29C102.024 96.6389 100.506 97.5469 98.9332 98.3941C97.2819 99.2811 95.6564 100.086 94.7107 100.086ZM98.2674 107.578C99.8657 106.527 102.73 104.75 104.383 103.821V101.303C101.065 103.203 95.2429 106.939 91.2728 110.283C91.38 110.487 92.0734 111.994 92.1521 112.181C93.8305 111.107 95.3366 110.405 96.6948 110.405C98.6011 110.405 100.159 110.405 102.771 109.455V107.557C101.305 107.971 99.7463 108.465 98.7341 108.465C98.1344 108.465 97.9607 108.341 97.9607 108.032C97.9607 107.847 98.0408 107.723 98.2674 107.578Z" fill="#939CA1"/>
<path d="M64.137 119.174L63.4966 121.074H70.3052L69.799 119.174H64.137Z" fill="#939CA1"/>
<path d="M39.6099 130.508C40.3291 130.508 40.9152 130.136 41.4756 129.787C42.0075 129.455 42.5407 129.125 43.2598 129.125C44.9654 129.125 47.0698 130.405 48.9219 131.622C49.0323 131.688 49.1495 131.723 49.2679 131.725C49.5623 131.725 49.7889 131.519 49.9341 131.086L50.1743 130.405C48.1363 128.568 44.8853 126.606 43.1934 126.606C42.4213 126.606 41.8609 126.917 41.329 127.245C40.7293 127.62 40.2097 128.01 39.6629 128.01C38.3182 128.01 34.8678 125.946 34.8678 123.945C34.8678 121.593 40.3562 120.685 40.9559 120.685L41.5014 118.764C37.5191 118.764 32.7756 120.931 32.7756 123.8C32.7756 124.626 33.0822 125.038 33.0822 125.801C33.0822 126.833 32.7756 127.535 32.7756 128.692C32.7756 129.455 33.0687 130.426 33.4147 131.273C33.7878 132.16 34.2274 132.736 34.2274 133.48C34.2274 134.037 33.9886 134.697 33.9886 135.998C33.9886 138.783 35.0144 140.478 37.0116 143.799L37.4119 144.459C35.7606 145.451 32.682 147.515 31.9628 147.988C29.4717 149.598 28.8462 151.559 28.8462 154.656C28.8462 155.852 28.8462 157.214 28.8991 158.431H29.3781C30.3781 158.431 30.4975 157.504 30.4975 156.617C30.4975 156.018 30.4839 155.337 30.4839 154.593C30.4975 152.881 30.5381 151.353 32.3224 150.115C33.0429 149.619 36.572 147.391 39.1975 145.657C39.9695 145.14 40.6886 144.707 41.4878 144.707C42.3806 144.707 43.4064 145.306 44.6858 146.483C45.7645 147.473 46.8975 148.814 47.7903 150.361L48.9219 149.02C47.949 147.246 46.6044 145.657 45.2585 144.419C43.9125 143.181 42.7144 142.458 41.7022 142.458C41.2626 142.458 40.903 142.582 40.5964 142.706C40.2368 142.851 39.903 143.015 39.477 143.015C38.9844 143.015 38.5706 142.83 37.9709 141.756C37.7443 141.365 36.3061 138.825 35.9994 138.083C35.8529 137.732 35.5869 137.03 35.5869 136.204C35.5869 135.853 35.6263 135.441 35.7606 135.069C36.9981 136.555 38.5313 137.463 40.3956 137.814L40.1432 135.853C37.4648 134.76 34.6141 131.107 34.6141 128.755C34.6141 128.258 34.6941 127.907 34.8149 127.474C35.8529 128.961 38.2911 130.508 39.6099 130.508ZM58.7808 130.88C60.4592 129.043 62.1905 128.837 63.5894 128.837C64.4293 128.837 65.4144 129.022 66.4537 129.228C67.2936 129.394 68.0521 129.518 68.9584 129.518C70.7834 129.518 72.6218 128.486 73.421 127.948C73.6476 128.383 74.0343 128.961 74.341 129.373C73.9543 129.745 71.5038 131.807 68.9991 131.807C67.8933 131.807 66.8404 131.603 65.934 131.416C65.1349 131.252 64.2692 131.107 63.4293 131.107C62.5107 131.107 60.6586 131.519 59.5135 132.366L58.7808 130.88Z" fill="#939CA1"/>
<path d="M83.5196 138.248C81.521 144.77 78.483 149.516 75.3664 152.262C73.8874 153.561 72.555 154.408 69.6785 154.408H63.4561C61.2322 154.408 59.8333 154.862 58.7411 155.295C57.5674 155.77 56.8225 156.243 55.6367 156.243C53.8782 156.243 52.2527 154.902 51.4671 153.624L52.9325 151.829L52.1998 150.319C51.7737 150.797 46.5649 156.76 45.4712 158.101L45.4047 158.04C45.4319 157.628 45.4319 157.256 45.4319 156.884C45.4319 152.344 44.0723 151.248 42.0086 149.97L40.6097 151.248C43.4468 152.716 44.1524 153.891 44.1524 157.172C44.1524 159.774 43.5527 160.804 42.687 161.59C41.7942 162.395 40.6884 162.765 39.7169 162.765C39.3031 162.765 39.1172 162.889 38.9706 163.116C38.8105 163.365 38.7305 163.737 38.7305 164.252V164.975H39.0643C40.8485 164.975 42.5011 164.542 44.3125 162.332L50.2147 155.192C51.0533 156.678 53.1726 158.742 55.676 158.742C57.0885 158.742 57.9948 158.204 59.3001 157.689C60.3123 157.296 61.2987 156.945 63.4561 156.945H69.7043C72.9023 156.945 74.4478 155.913 76.152 154.429C79.8561 151.209 83.0135 145.76 84.7991 139.504C84.3323 139.053 83.8927 138.638 83.5196 138.248Z" fill="#939CA1"/>
<path d="M73.4883 146.008C75.1002 142.004 76.5385 138.453 80.0689 135.565C79.6958 135.214 79.1639 134.678 78.8831 134.388C77.5113 135.317 76.1531 137.173 74.9944 139.052C72.3296 143.345 72.5684 145.821 69.7584 147.494C69.0514 147.906 68.1858 148.36 67.08 148.753C66.4273 145.636 64.7896 142.54 63.057 142.54C61.8575 142.54 60.4722 143.509 58.8738 144.604C56.996 145.884 55.2769 147.349 54.7314 147.906L55.4641 149.434C56.0231 148.957 57.6351 147.719 59.247 146.647C60.6459 145.718 61.9118 144.955 62.7639 144.955C64.1356 144.955 65.0285 147.37 65.5224 149.308C63.7232 149.97 60.7653 150.134 59.8738 150.134C59.46 150.134 59.3134 150.237 59.1669 150.424C59.0339 150.609 58.9268 150.939 58.8603 151.393L58.7545 152.095H59.7124C64.696 152.095 69.3988 150.878 72.4218 148.03C72.8492 148.217 73.2224 148.339 73.7013 148.339C75.4326 148.339 77.2182 146.874 78.3376 145.533C78.7365 145.058 78.8302 144.623 78.8302 144.15C78.8302 143.923 78.8166 143.717 78.803 143.509L78.7501 142.706C77.1518 144.665 75.8193 146.132 74.1681 146.132C73.875 146.132 73.662 146.09 73.4883 146.008Z" fill="#939CA1"/>
</svg>
