<svg width="250" height="259" viewBox="0 0 250 259" fill="none" xmlns="http://www.w3.org/2000/svg">
<g clip-path="url(#clip0_77_26)">
<path d="M47.5805 177.817C21.5836 177.817 0.433105 155.963 0.433105 129.105C0.433105 102.243 21.5836 80.3909 47.5805 80.3909C73.5766 80.3909 94.7262 102.244 94.7262 129.105C94.7262 155.963 73.5766 177.817 47.5805 177.817V177.817Z" fill="white"/>
<path d="M47.5807 80.8375C73.3784 80.8375 94.2931 102.446 94.2931 129.104C94.2931 155.761 73.3784 177.369 47.5807 177.369C21.7814 177.369 0.86668 155.76 0.86668 129.104C0.86668 102.447 21.7814 80.8375 47.5807 80.8375ZM47.5807 79.9424C21.3446 79.9424 0 101.996 0 129.104C0 156.212 21.3446 178.264 47.5807 178.264C73.816 178.264 95.1598 156.21 95.1598 129.104C95.1598 101.996 73.816 79.9424 47.5807 79.9424Z" fill="#004883"/>
<path d="M249.125 109.308C249.649 108.676 250 107.955 250 107.052C250.007 106.155 249.695 105.287 249.125 104.612C248.51 103.978 247.728 103.616 246.85 103.616C245.978 103.616 245.279 103.979 244.576 104.612C243.967 105.245 243.701 106.057 243.701 107.052C243.701 107.955 243.967 108.676 244.576 109.308C245.279 109.94 245.978 110.211 246.85 110.211C247.728 110.211 248.51 109.94 249.125 109.308V109.308ZM249.302 142.551V113.373H244.577L244.667 142.551H249.302ZM238.367 114.82L237.581 114.457C235.482 113.191 232.944 112.56 229.884 112.56C226.56 112.56 223.849 113.372 221.837 114.999C220.788 115.812 220.088 116.624 219.563 117.71C219.04 118.703 218.775 119.696 218.775 120.87C218.775 122.858 219.652 124.483 221.227 125.928C222.712 127.284 224.898 128.368 227.785 129.27C230.232 130.083 231.894 130.897 232.944 131.71C233.82 132.615 234.345 133.607 234.345 134.871C234.345 136.226 233.645 137.31 232.419 138.214C231.193 138.938 229.442 139.389 227.259 139.389C224.896 139.389 222.537 138.756 220.088 137.58L219.475 137.13L217.463 140.923L218.165 141.285C220.875 142.64 223.851 143.271 227.086 143.271C230.585 143.271 233.471 142.548 235.744 140.923C236.881 140.2 237.669 139.208 238.282 138.215C238.891 137.041 239.155 135.774 239.155 134.51V134.417C239.155 132.25 238.282 130.353 236.619 128.818C235.222 127.555 232.946 126.47 229.972 125.567C227.697 124.751 226.036 123.939 225.074 123.307C224.024 122.493 223.587 121.591 223.587 120.598C223.587 119.422 224.024 118.521 224.989 117.708C226.036 116.984 227.434 116.532 229.272 116.532C231.809 116.532 233.908 116.984 235.57 118.068L236.183 118.52L238.367 114.82V114.82ZM209.856 116.987C206.619 114.096 202.597 112.561 197.959 112.561C193.411 112.561 189.651 114.005 186.59 116.806C183.177 119.969 181.43 124.303 181.43 129.995V152.668H185.976V138.034C187.376 139.659 189.128 140.925 191.225 141.83C193.324 142.821 195.598 143.273 198.049 143.273C202.684 143.273 206.619 141.83 209.856 138.755C213.18 135.774 214.839 132.162 214.839 127.915C214.839 123.58 213.18 119.968 209.856 116.987V116.987ZM197.959 116.624C201.372 116.624 204.343 117.71 206.617 119.876C208.98 122.044 210.205 124.753 210.205 128.008C210.205 131.077 209.154 133.606 207.055 135.774C204.782 138.033 201.721 139.208 198.048 139.208C194.371 139.208 191.397 138.034 189.037 135.774C186.852 133.518 185.803 130.988 185.803 128.008C185.803 125.025 186.853 122.407 189.037 120.237C191.313 117.89 194.287 116.624 197.959 116.624V116.624ZM174.169 118.433C171.111 114.457 166.736 112.56 160.875 112.56C156.502 112.56 152.739 113.825 149.504 116.534C146.007 119.335 144.258 123.13 144.258 127.827C144.258 130.446 144.957 133.066 146.443 135.504C147.757 137.852 149.768 139.75 152.48 141.194C155.19 142.55 158.076 143.181 161.224 143.181C164.199 143.181 166.996 142.55 169.71 141.194C172.418 139.75 174.431 137.852 175.743 135.504L176.618 133.968H171.547C170.495 135.504 169.006 136.77 167.086 137.762C165.162 138.755 163.063 139.208 161.05 139.208C158.252 139.208 155.89 138.483 153.79 137.038C151.691 135.503 150.293 133.606 149.418 131.077C152.302 129.902 155.19 129.269 158.34 129.269L163.063 129.81L170.409 130.534C172.682 130.534 174.609 130.173 176.356 129.632C177.057 129.36 177.493 128.998 177.67 128.546C177.93 128.185 177.93 127.555 177.758 126.829C177.23 123.58 176.094 120.781 174.169 118.433V118.433ZM172.947 125.842L173.034 126.021L170.496 126.382L164.987 125.841L157.29 125.207H155.977C153.528 125.387 151.255 125.841 149.067 126.652C149.416 123.309 150.992 120.688 153.617 118.793C155.802 117.346 158.252 116.534 160.875 116.534C164.984 116.534 168.134 117.889 170.496 120.599C171.722 122.227 172.594 123.942 172.947 125.842V125.842ZM123.877 112.56C119.417 112.56 115.568 114.004 112.507 116.805C109.096 119.968 107.434 124.302 107.434 129.993L107.347 152.666H112.071L111.982 138.033C113.382 139.658 115.131 140.923 117.143 141.828C119.329 142.821 121.604 143.27 124.052 143.27C128.688 143.27 132.624 141.828 135.861 138.754C139.184 135.773 140.758 132.16 140.758 127.913C140.758 123.577 139.184 119.966 135.947 116.984C132.624 114.096 128.688 112.56 123.877 112.56V112.56ZM114.957 120.238C117.318 117.89 120.205 116.624 123.877 116.624C127.377 116.624 130.263 117.71 132.622 119.876C134.986 122.044 136.121 124.753 136.121 128.008C136.121 131.077 135.073 133.606 133.059 135.774C130.787 138.033 127.813 139.208 123.965 139.208C120.379 139.208 117.318 138.034 114.956 135.774C112.857 133.518 111.807 130.988 111.807 128.008C111.808 125.026 112.857 122.408 114.957 120.238V120.238Z" fill="#004883"/>
<path d="M74.2919 92.5314C73.8905 92.2174 73.5095 91.8766 73.1514 91.5109C65.67 86.0608 56.736 83.1414 47.5808 83.1551C23.0217 83.1551 3.11235 103.727 3.11235 129.103C3.09877 138.992 6.18588 148.619 11.9118 156.544C26.7927 152.006 39.7755 144.11 50.902 132.699C62.0145 121.341 69.8233 107.9 74.2919 92.5314Z" fill="#E32934"/>
<path d="M47.5809 175.051C72.1383 175.051 92.0477 154.477 92.0477 129.102C92.0477 120.12 89.5516 111.744 85.2408 104.668C85.1276 104.551 85.026 104.423 84.9374 104.286C85.8423 107.37 86.3005 110.575 86.2973 113.797C86.2973 119.011 85.1307 123.946 82.8392 128.567C80.5731 132.955 77.3875 136.765 73.5146 139.721C70.4067 142.088 66.6765 144.095 62.285 145.74C58.7897 147.062 54.2431 148.427 48.6105 149.75L32.3689 153.524C25.4641 155.159 19.1755 156.908 13.5732 158.699C21.7296 168.7 33.9359 175.051 47.5809 175.051V175.051Z" fill="#004883"/>
</g>
<defs>
<clipPath id="clip0_77_26">
<rect width="250" height="258.201" fill="white"/>
</clipPath>
</defs>
</svg>
