<svg width="48" height="47" viewBox="0 0 48 47" fill="none" xmlns="http://www.w3.org/2000/svg">
<g filter="url(#filter0_d_83_33)">
<path d="M39.7041 14.4676C39.7266 14.8135 39.7266 15.1622 39.7266 15.511C39.7266 26.1872 31.6012 38.4976 16.7428 38.4976V38.4919C12.3529 38.4981 8.05393 37.2405 4.35938 34.8694C8.62989 35.3825 12.9294 34.1787 16.3125 31.5226C14.6268 31.4904 12.9934 30.9323 11.6404 29.9263C10.2875 28.9203 9.28271 27.5166 8.76656 25.9116C9.97875 26.1451 11.2275 26.0972 12.4144 25.771C10.5866 25.4017 8.94282 24.4116 7.76176 22.9686C6.58071 21.5256 5.93508 19.7185 5.93437 17.8538V17.7526C7.05937 18.3769 8.31656 18.7229 9.60188 18.7651C7.8907 17.6224 6.67928 15.8706 6.21425 13.8663C5.74921 11.8619 6.06551 9.75567 7.09875 7.97631C9.12712 10.4717 11.6577 12.5125 14.5262 13.9661C17.3947 15.4198 20.5369 16.2537 23.7488 16.4138C23.3447 14.6814 23.5235 12.8642 24.2573 11.2437C24.9911 9.62323 26.2389 8.29007 27.8074 7.45088C29.3759 6.61169 31.1774 6.31334 32.9326 6.60207C34.6879 6.8908 36.2989 7.75048 37.5159 9.04787C39.325 8.69099 41.0599 8.02804 42.6459 7.08756C42.0429 8.9571 40.7816 10.5442 39.0966 11.5538C40.6975 11.3651 42.261 10.9366 43.7344 10.2826C42.6506 11.9062 41.2858 13.3234 39.7041 14.4676Z" fill="white"/>
</g>
<defs>
<filter id="filter0_d_83_33" x="-2.45312" y="0" width="53" height="53" filterUnits="userSpaceOnUse" color-interpolation-filters="sRGB">
<feFlood flood-opacity="0" result="BackgroundImageFix"/>
<feColorMatrix in="SourceAlpha" type="matrix" values="0 0 0 0 0 0 0 0 0 0 0 0 0 0 0 0 0 0 127 0" result="hardAlpha"/>
<feOffset dy="4"/>
<feGaussianBlur stdDeviation="2"/>
<feComposite in2="hardAlpha" operator="out"/>
<feColorMatrix type="matrix" values="0 0 0 0 0 0 0 0 0 0 0 0 0 0 0 0 0 0 0.25 0"/>
<feBlend mode="normal" in2="BackgroundImageFix" result="effect1_dropShadow_83_33"/>
<feBlend mode="normal" in="SourceGraphic" in2="effect1_dropShadow_83_33" result="shape"/>
</filter>
</defs>
</svg>
