<svg width="250" height="259" viewBox="0 0 250 259" fill="none" xmlns="http://www.w3.org/2000/svg">
<path d="M115.118 210.883C115.981 210.883 117.466 210.449 118.635 207.549C117.967 205.249 117.491 200.602 117.423 198.91C117.078 190.255 119.231 182.113 121.588 181.889C123.315 181.728 124.696 184.26 124.856 188.361C125.279 199.146 122.962 203.65 121.802 207.531C121.998 209.037 123.645 211.6 125.201 211.6C125.776 211.6 126.471 211.155 126.645 210.794C126.529 210.173 126.412 209.368 126.412 208.204C126.412 201.955 129.006 196.687 131.253 196.687C133.04 196.687 134.076 200.347 134.076 202.762C134.076 205.615 132.52 207.941 130.217 210.174C130.621 210.794 131.367 211.245 132.003 211.245C135.29 211.245 137.01 205.083 138.285 199.457C138.515 198.382 138.919 196.865 139.724 196.865C141.109 196.865 141.686 210.972 143.986 210.972C144.967 210.972 145.774 207.845 145.774 205.44C145.774 203.654 145.371 203.475 145.371 200.884C145.371 198.031 146.351 195.623 147.678 195.623C148.484 195.623 148.775 196.865 148.775 198.381C148.775 204.096 146.122 214.721 142.207 214.721C139.264 214.721 139.494 206.866 138.457 206.866C137.3 206.866 135.686 214.812 129.986 214.812C129.059 214.812 128.083 214.098 127.279 212.667C125.896 214.099 124.74 214.721 123.415 214.721C121.285 214.721 120.363 211.329 119.499 211.329C118.459 211.329 117.31 214.812 113.849 214.812C111.084 214.812 110.622 209.102 109.646 209.102C108.779 209.102 107.454 214.812 106.015 214.812C103.591 214.812 103.076 204.903 100.941 204.903C99.27 204.903 93.99 214.968 92.5572 214.738C91.9798 214.645 91.7382 213.976 91.7988 213.083C91.8794 211.849 92.5655 208.543 92.8449 206.978C93.3107 204.264 93.7387 201.288 93.9774 200.338C94.2147 199.383 94.8551 198.698 95.368 198.773C95.6271 198.81 95.7052 199.558 95.7848 200.175C96.0754 202.382 96.4825 204.633 96.9405 204.633C97.7494 204.633 100.423 196.687 101.978 196.687C103.883 196.687 104.111 209.187 106.702 209.187C107.568 209.187 108.204 207.584 108.778 205.615C108.838 202.305 109.413 197.585 111.141 197.585C112.353 197.585 112.931 201.777 112.063 205.44C112.063 209.812 113.906 210.882 115.118 210.882M161.217 200.173C160.502 204.761 158.337 211.512 155.107 211.512C154.36 211.512 153.033 211.063 153.033 209.901C153.033 208.65 158.107 208.478 158.107 202.492C158.107 200.263 156.782 197.135 154.822 197.135C152.229 197.135 149.699 201.513 149.699 207.583C149.699 213.025 151.882 214.812 154.071 214.812C157.877 214.812 160.18 209.986 161.39 205.972C161.968 208.65 162.31 214.812 163.755 214.812C164.329 214.812 164.735 214.364 165.429 211.957C167.151 205.972 168.824 199.1 171.132 199.1C171.994 199.1 171.477 201.513 173.551 201.513C174.529 201.513 175.218 200.263 175.218 198.828C175.218 196.773 174.009 195.172 172.167 195.172C166.751 195.172 165.6 207.76 164.735 207.76C163.293 207.76 163.755 197.672 162.715 197.672C161.793 197.672 161.34 199.376 161.217 200.173ZM122.99 190.771C122.889 188.277 122.499 187.151 121.635 187.241C120.487 187.349 119.956 192.944 120.191 198.822C120.34 202.658 120.709 203.248 121.052 203.212C121.687 203.155 123.21 196.3 122.99 190.771M113.618 185.528C113.537 184.099 112.812 183.121 111.832 183.121C110.738 183.121 109.709 184.9 109.818 187.134C109.888 188.604 110.449 189.817 111.548 189.817C112.813 189.817 113.734 187.585 113.618 185.528ZM131.543 203.739C131.543 202.225 131.022 200.975 130.392 200.975C129.868 200.975 128.662 201.863 128.662 204.722C128.662 206.962 129.176 208.024 129.411 208.478C131.079 207.674 131.543 205.525 131.543 203.739ZM154.071 200.712C155.283 200.712 155.63 202.934 155.342 204.277C155.051 205.615 154.016 207.138 152.401 207.584C152.055 206.242 151.882 200.712 154.071 200.712ZM87.7178 194.373C87.5519 193.562 87.0735 191.737 86.9415 190.391C86.6538 187.408 87.6601 185.443 88.5844 184.993C89.6222 184.545 90.0269 185.35 90.4272 187.228C90.9463 190.083 91.0046 193.83 90.8299 199.187C90.6028 206.508 88.2389 215.348 82.3622 215.165C77.2894 214.993 75.0444 209.901 74.8115 202.135C74.7018 198.475 74.8697 194.818 75.8498 189.639C76.368 186.869 76.8314 185.883 78.4422 185.35C79.7096 184.993 79.5955 187.043 79.3078 189.462C78.6756 194.818 78.3835 197.403 78.6164 203.475C78.843 209.901 80.7489 212.404 82.8231 212.404C85.9342 212.495 87.3161 208.478 87.8949 202.67C88.3529 198.031 88.0089 195.799 87.7183 194.373M155.684 78.2286C156.083 82.7274 160.483 88.7919 161.677 88.6498C162.473 88.5439 162.778 82.7747 162.778 78.2286C162.778 75.6248 162.871 73.5855 161.983 73.1097C160.575 77.5167 156.879 78.418 155.684 78.2286ZM155.928 76.2381C159.106 76.2381 162.013 72.3069 162.013 68.8484C162.013 67.236 161.523 65.9108 160.27 65.6748C160.483 66.1018 160.575 66.4332 160.575 67.1894C160.575 69.7955 158.011 72.6865 155.226 72.6865C154.216 72.6865 153.91 73.7741 153.91 74.3439C153.91 75.6714 154.737 76.2381 155.928 76.2381ZM155.256 70.8854C154.829 70.8854 154.216 70.8854 153.878 69.8444C153.603 68.9905 153.695 67.6164 153.175 67C153.695 67.236 154.246 67.236 154.675 67.236C156.053 67.236 157.369 65.768 158.379 65.768C159.045 65.768 159.259 66.4332 159.259 67.094C159.259 69.1821 156.543 70.8854 155.256 70.8854ZM86.8576 108.024C87.8959 108.024 87.6814 98.1698 89.3641 98.1698C89.762 98.1698 89.8833 98.7862 89.8833 99.5454C89.8833 101.77 89.1802 105.04 89.1802 106.839C89.1802 107.74 89.3326 108.024 89.6082 108.024C90.3428 108.024 91.6266 97.1746 92.8808 97.1746C93.2787 97.1746 93.4611 97.7902 93.4611 98.4081C93.4611 100.681 91.596 107.218 91.596 109.065C91.596 109.348 91.6577 109.586 91.81 109.586C92.5752 109.586 94.104 104.471 94.5921 101.913C94.8677 100.586 95.235 99.8739 95.5713 99.8739C95.877 99.8739 96.1526 100.396 96.1526 101.486C96.1526 104.044 94.6222 110.06 93.2787 114.089C92.2394 117.214 90.6184 121.713 90.6184 124.224C90.6184 125.502 90.7692 126.828 91.9638 128.441C90.0055 128.251 89.2103 127.967 88.4781 125.598C85.2069 135.688 94.5014 134.693 91.3204 143.646C90.7392 142.037 86.153 140.378 86.153 130.998C86.153 122.898 90.7392 118.161 90.7392 114.796C90.7392 114.136 90.5888 113.566 90.1894 113.044C89.1802 111.717 89.1487 110.631 88.3563 110.631C87.7736 110.631 87.0701 112.713 87.8032 114.561C88.0492 115.177 88.2632 115.555 88.2632 116.124C88.2632 117.45 86.9163 121.001 85.9706 121.001C85.023 121.001 84.2894 117.358 84.2894 111.481C84.2894 106.27 85.0531 101.013 86.0007 101.013C86.2763 101.013 86.368 101.298 86.368 101.676C86.368 102.292 86.2462 103.523 86.2462 105.605C86.2462 107.833 86.582 108.024 86.8576 108.024Z" fill="white"/>
<path d="M94.6535 121.903C95.9393 121.903 97.0077 120.432 97.0077 117.167V112.333C97.0077 110.487 97.0999 108.403 97.8961 106.933C97.8044 107.549 97.8044 108.214 97.8044 108.828C97.8044 112.902 99.2716 115.698 99.2716 119.63C99.2716 121.095 98.996 121.903 98.2639 121.903C97.5589 121.903 97.6205 120.906 97.4672 120.906C97.3449 120.906 97.1615 121.522 97.1615 122.187C97.1615 123.181 97.6205 124.745 98.9038 124.745C100.006 124.745 100.892 123.181 100.892 121.428C100.892 117.168 98.752 112.428 98.752 107.883C98.752 105.89 99.0877 104.564 99.3633 103.522C99.3633 112.951 104.531 119.818 104.531 123.748C104.531 124.649 104.104 125.36 103.462 125.36C102.757 125.36 102.421 124.506 102.421 123.842C102.421 123.51 102.39 123.417 102.299 123.417C102.116 123.417 101.565 124.364 101.565 125.599C101.565 127.16 102.39 129.056 103.92 129.056C105.661 129.056 106.61 126.78 106.61 124.745C106.61 119.772 100.341 112.24 100.341 104.186C100.341 102.812 100.493 100.586 101.136 98.8802C97.0994 102.905 95.8476 108.261 95.8476 112.952C95.8476 117.026 95.7559 119.058 94.4109 119.058C93.7059 119.058 93.5234 118.066 93.2784 118.066C93.094 118.066 93.0028 118.918 93.0028 119.154C93.0028 120.906 93.8296 121.903 94.6535 121.903ZM147.645 74.5807C148.992 74.5807 150.002 73.6336 150.002 73.0638C150.002 72.8767 149.818 72.7331 149.42 72.7331C149.022 72.7331 148.227 72.6858 146.727 72.3077C145.441 71.9739 144.461 71.2177 144.094 71.2177C143.972 71.2177 143.91 71.3117 143.91 71.4537C143.91 72.6858 145.38 74.5807 147.645 74.5807ZM140.98 68.5651C141.368 68.1614 143.091 68.8003 145.32 67.0948C145.562 66.8818 145.835 66.768 146.114 66.764C147.186 66.764 146.909 68.6583 147.891 68.6583C148.654 68.6583 149.635 67.6623 150.216 67.6623C151.128 67.6623 152.443 72.1167 152.443 74.2004C152.443 76.6178 150.094 78.0851 147.308 78.0851C143.245 78.0851 140.795 72.5925 140.795 69.0386C140.795 68.7537 140.888 68.6583 140.98 68.5651ZM95.2964 139.76C94.2881 140.141 92.6666 142.6 92.6666 146.49C92.6666 151.131 95.8776 158.285 101.167 158.285C105.63 158.285 106.732 153.502 106.732 150.277C106.732 143.123 103.889 138.101 100.19 138.101C98.1712 138.101 96.3672 140.379 96.3672 143.739C96.3672 146.868 97.8956 151.556 101.535 151.556C103.247 151.556 104.255 149.661 104.255 147.484C104.255 145.351 103.002 142.416 101.167 142.416C100.616 142.416 100.22 142.98 100.22 143.882C100.22 145.017 101.229 146.156 102.482 146.156C102.788 146.156 103.032 146.063 103.156 145.968C103.216 146.11 103.247 146.347 103.247 146.537C103.247 147.627 102.573 148.291 101.535 148.291C99.9757 148.291 98.4759 146.49 98.4759 143.643C98.4759 141.942 99.4245 140.71 100.8 140.71C103.522 140.71 105.143 144.451 105.143 148.196C105.143 151.556 103.951 153.502 101.505 153.502C96.6113 153.502 94.2265 146.679 95.2964 139.76ZM127.83 158.048C127.831 158.55 127.96 159.031 128.189 159.386C128.418 159.741 128.729 159.941 129.053 159.943C129.377 159.941 129.687 159.741 129.916 159.386C130.146 159.032 130.275 158.551 130.276 158.049C130.275 157.546 130.146 157.065 129.917 156.709C129.688 156.354 129.377 156.153 129.053 156.151C128.729 156.153 128.418 156.354 128.189 156.709C127.96 157.065 127.831 157.546 127.83 158.049M130.2 167.516C131.666 167.516 131.591 167.327 132.05 167.327C132.508 167.327 132.54 167.753 132.54 168.038C132.54 169.081 131.04 170.363 128.381 170.363C126.82 170.363 125.873 169.081 125.598 167.66C124.07 169.175 121.746 170.549 119.452 170.549C113.185 170.549 111.594 166.331 109.637 164.96C108.137 163.918 105.845 165.957 102.635 160.413C103.063 160.555 103.644 160.604 104.104 160.604C106.915 160.604 108.413 158.473 108.413 155.06C108.413 154.633 108.383 154.165 108.351 153.741C109.208 154.261 111.166 156.532 111.624 160.555C111.686 161.03 112.939 161.455 113.733 161.455C114.835 161.455 116.242 160.744 116.455 157.952C120.125 157.479 122.603 154.117 123.123 149.849C124.436 150.514 125.933 152.362 126.301 153.311C126.82 153.027 127.432 152.885 128.135 152.885C129.113 152.885 130.215 153.169 131.529 153.787C131.591 153.169 131.653 152.411 132.264 152.411C133.181 152.411 132.936 153.974 133.242 154.87C133.395 155.344 134.161 155.629 134.161 156.577C134.161 157.479 133.669 157.81 133.365 157.81C133.242 157.81 133.09 157.764 132.997 157.717C132.386 158.048 132.356 164.867 129.786 164.867C127.891 164.867 126.149 162.452 125.384 159.423C125.168 158.522 124.712 157.952 124.282 157.952C123.795 157.952 123.519 158.095 122.939 159.091C121.288 161.882 118.535 164.298 115.142 164.298C114.1 164.298 113.276 164.155 113.061 164.155C112.939 164.155 112.939 164.202 112.939 164.249C112.939 164.582 113.979 165.863 116.242 165.863C121.623 165.863 122.939 161.171 123.795 161.171C123.916 161.171 124.283 161.171 124.496 161.929C125.75 166.473 128.488 167.516 130.2 167.516ZM148.747 137.344C148.105 137.344 144.553 144.687 142.265 144.687C141.714 144.687 141.256 143.074 141.256 141.848C141.256 141.184 141.529 140.71 142.511 140.379C147.768 138.528 146.605 132.417 151.097 132.417C153.573 132.417 156.328 135.024 156.328 140.899C156.328 147.153 150.583 154.919 149.726 154.919C149.021 154.919 148.258 153.357 148.258 152.315C148.258 151.986 148.35 151.556 148.961 151.178C151.892 149.374 153.573 145.209 153.573 143.074C153.573 142.601 153.421 142.133 153.022 142.133C152.504 142.133 150.277 149.993 147.798 149.993C146.084 149.993 144.34 147.58 144.34 146.441C144.34 144.547 149.297 141.041 149.297 138.386C149.297 137.39 148.992 137.344 148.747 137.344M152.045 134.408C151.617 134.408 151.159 134.93 151.159 136.212C151.159 137.628 151.862 138.528 152.26 138.813C152.473 139.003 152.811 139.193 153.144 139.193C154.032 139.193 154.736 138.813 154.736 137.675C154.736 136.211 153.359 134.408 152.045 134.408ZM94.9291 79.5531C94.9301 80.0558 95.0594 80.5374 95.2889 80.8929C95.5183 81.2483 95.8292 81.4487 96.1537 81.4503C96.4777 81.4479 96.788 81.2471 97.0168 80.8917C97.2456 80.5362 97.3743 80.055 97.375 79.5531C97.3739 79.0516 97.245 78.571 97.0162 78.2162C96.7875 77.8614 96.4774 77.661 96.1537 77.6589C95.8295 77.66 95.5187 77.8599 95.2893 78.2148C95.0598 78.5697 94.9304 79.0508 94.9291 79.5531ZM93.34 75.2903C93.3411 75.7919 93.4701 76.2726 93.6989 76.6275C93.9278 76.9823 94.238 77.1826 94.5618 77.1845C94.8859 77.1832 95.1965 76.9832 95.4259 76.6283C95.6552 76.2735 95.7847 75.7925 95.7859 75.2903C95.7848 74.788 95.6554 74.3068 95.4261 73.9518C95.1967 73.5968 94.886 73.3967 94.5618 73.3953C94.238 73.3973 93.9278 73.5976 93.6989 73.9524C93.4701 74.3073 93.3411 74.7879 93.34 75.2896M92.2386 88.2688C91.5341 88.5537 90.0683 89.8811 90.0683 92.2474C90.0683 93.9537 90.9223 95.0429 91.9946 95.0429C92.5448 95.0429 92.9422 94.8535 93.1862 94.5693C92.3308 93.2907 92.0251 91.8693 92.0251 90.4502C92.0251 89.4542 92.1173 88.8378 92.2386 88.2688ZM84.7486 88.934C84.718 89.1716 84.718 89.4076 84.718 89.6436C84.718 91.8693 85.4817 93.1013 86.4909 93.1013C87.2537 93.1013 88.1421 92.3895 88.9359 90.8267C88.572 90.9217 88.2035 90.9685 87.8345 90.9666C86.7049 90.9666 85.4817 90.4975 84.7486 88.934ZM83.6777 93.1479C83.6777 96.7485 84.3813 98.4548 85.6341 98.4548C86.6132 98.4548 87.9281 97.3648 89.4856 95.2804C88.2939 95.7081 87.3769 95.99 86.5516 95.99C85.4502 95.99 84.5962 95.3278 83.6777 93.1487M91.5972 74.2004C91.7767 73.3112 91.8691 72.3854 91.8713 71.4537C91.8713 69.1807 91.1984 65.7207 89.1198 65.7207C87.9281 65.7207 87.0698 67.1887 87.0698 68.9431C87.0698 72.6865 89.4861 74.2004 91.5972 74.2004ZM88.9965 86.1385C87.9883 86.1385 86.8873 84.1969 86.8873 82.444C86.8873 81.4969 87.3454 80.3115 87.6826 80.3115C87.8049 80.3115 87.8665 80.4543 87.8961 80.7873C88.0805 83.107 89.0576 84.4345 89.9766 85.0952C90.0688 85.1907 90.1285 85.238 90.1285 85.3335C90.1285 85.6642 89.5472 86.1378 88.996 86.1378M91.8112 80.3581C92.0222 80.8046 92.6064 81.3549 92.6064 81.6863C92.6064 82.3486 92.3609 83.2025 91.8713 83.2025C90.8005 83.2025 89.9451 80.6919 89.9451 79.2689C89.9451 78.3699 90.2823 78.2767 90.7389 78.2767C90.9543 78.2767 91.0445 78.3233 91.1984 78.4662C91.474 78.7014 91.474 79.6493 91.8112 80.3581ZM84.6263 86.234C84.5686 86.3806 84.5341 86.5647 84.5341 86.7564C84.5341 87.1811 84.8398 87.6547 85.1144 87.6547C85.3599 87.6547 85.5123 87.5615 85.6341 87.5615C86.3677 87.5615 87.193 88.3643 88.3861 88.3643C89.0882 88.3643 89.9145 88.0335 90.9543 87.23C93.1547 85.5222 94.013 81.3082 94.013 80.5964C94.013 79.6959 93.5458 79.8124 93.1547 78.9841C92.7656 78.1602 92.915 77.4273 92.6666 77.0425C92.5239 76.8215 92.0868 76.8065 91.5341 76.7117C91.3108 76.6779 91.0865 76.6621 90.8621 76.6644C89.8529 76.6644 88.6574 76.8553 87.3153 78.1813C84.6622 80.8024 85.0528 85.1441 84.6263 86.234ZM94.7767 84.3398C94.1037 85.5688 93.4002 87.6547 93.4002 89.7857C93.4002 92.3429 94.4109 94.4739 95.9698 94.4739C97.4672 94.4739 98.1702 92.4857 98.1702 90.4502C98.1702 87.2766 96.3056 85.0486 94.7767 84.339M88.2338 75.2437C88.2338 75.2437 87.3454 76.284 86.2454 76.284C84.932 76.284 83.8912 74.7694 83.8912 72.6391C83.8912 71.1689 84.3813 69.655 85.5118 68.8958C85.4817 69.1814 85.4817 69.4167 85.4817 69.7016C85.4817 72.4009 86.4594 74.4387 88.2338 75.2437ZM142.143 90.9681C142.143 92.0595 142.725 92.96 143.42 92.96C143.761 92.9572 144.087 92.7465 144.327 92.3736C144.568 92.0006 144.704 91.4956 144.706 90.9681C144.704 90.4414 144.568 89.9375 144.327 89.5656C144.086 89.1936 143.761 88.9837 143.421 88.9814C142.725 88.9814 142.143 89.8804 142.143 90.9673M142.234 96.9364C142.234 97.5262 142.386 98.0918 142.655 98.5089C142.924 98.9259 143.289 99.1602 143.67 99.1602C144.05 99.1602 144.416 98.9259 144.685 98.5089C144.954 98.0918 145.105 97.5262 145.105 96.9364C145.098 96.3537 144.944 95.7984 144.676 95.3901C144.407 94.9818 144.046 94.7531 143.67 94.7531C143.294 94.7531 142.932 94.9818 142.664 95.3901C142.395 95.7984 142.241 96.3537 142.234 96.9364ZM137.829 100.964C137.83 101.831 138.053 102.662 138.448 103.275C138.844 103.887 139.381 104.232 139.94 104.234C140.5 104.232 141.036 103.887 141.432 103.274C141.827 102.661 142.05 101.831 142.052 100.964C142.05 100.097 141.827 99.2669 141.431 98.6544C141.036 98.0418 140.5 97.6968 139.94 97.6948C139.381 97.6962 138.844 98.0411 138.448 98.654C138.053 99.2668 137.83 100.098 137.829 100.965M138.96 94.286C138.961 94.7883 139.09 95.2697 139.32 95.6247C139.549 95.9797 139.86 96.1794 140.184 96.1802C140.508 96.179 140.819 95.9791 141.048 95.6241C141.277 95.2692 141.407 94.788 141.407 94.286C141.407 93.7839 141.277 93.3029 141.048 92.9478C140.819 92.5928 140.509 92.3926 140.185 92.391C139.861 92.3922 139.55 92.592 139.32 92.9469C139.091 93.3018 138.961 93.7829 138.96 94.2852M134.956 98.0752C134.957 98.5758 135.085 99.0556 135.314 99.4101C135.542 99.7646 135.851 99.9651 136.174 99.9679C136.849 99.9679 137.4 99.1185 137.4 98.0752C137.398 97.5725 137.269 97.091 137.039 96.7361C136.809 96.3811 136.498 96.1815 136.174 96.181C135.85 96.1843 135.541 96.3852 135.313 96.74C135.085 97.0947 134.957 97.5746 134.956 98.0752ZM138.103 86.9932C138.103 88.6499 138.99 90.0225 140.061 90.0225C141.133 90.0225 142.02 88.6499 142.02 86.9932C142.02 85.332 141.133 83.9602 140.061 83.9602C138.99 83.9602 138.103 85.332 138.103 86.9932ZM140.398 81.1647C140.398 81.4011 140.428 81.6352 140.487 81.8536C140.545 82.0719 140.631 82.2703 140.739 82.4374C140.847 82.6045 140.975 82.7369 141.116 82.8272C141.257 82.9174 141.408 82.9637 141.561 82.9634C141.716 82.9704 141.871 82.929 142.016 82.8416C142.161 82.7543 142.293 82.6228 142.404 82.455C142.516 82.2871 142.605 82.0863 142.665 81.8644C142.726 81.6425 142.757 81.4041 142.757 81.1632C142.757 80.9223 142.726 80.6838 142.665 80.462C142.605 80.2401 142.516 80.0393 142.404 79.8714C142.293 79.7035 142.161 79.572 142.016 79.4847C141.871 79.3974 141.716 79.3559 141.561 79.3629C141.408 79.3629 141.257 79.4095 141.116 79.5001C140.975 79.5906 140.847 79.7234 140.739 79.8907C140.631 80.058 140.545 80.2566 140.487 80.4752C140.428 80.6938 140.398 80.9281 140.398 81.1647ZM134.866 85.7123C134.865 86.1886 134.987 86.6459 135.203 86.9837C135.42 87.3215 135.714 87.5123 136.022 87.5141C136.33 87.5141 136.626 87.3244 136.843 86.9868C137.061 86.6492 137.184 86.1913 137.184 85.7138C137.184 85.2364 137.061 84.7785 136.843 84.4409C136.626 84.1032 136.33 83.9136 136.022 83.9136C135.715 83.9152 135.42 84.1054 135.204 84.4427C134.987 84.7799 134.866 85.2365 134.866 85.7123ZM134.712 91.8686C134.71 92.2481 134.757 92.6244 134.85 92.9756C134.943 93.3269 135.08 93.6462 135.252 93.915C135.425 94.1839 135.631 94.397 135.857 94.5419C136.084 94.6869 136.327 94.7608 136.571 94.7595C136.817 94.7622 137.061 94.6893 137.288 94.545C137.515 94.4008 137.722 94.188 137.896 93.9191C138.07 93.6501 138.207 93.3304 138.301 92.9784C138.394 92.6264 138.442 92.2492 138.44 91.8686C138.44 90.26 137.612 88.9821 136.571 88.9821C136.327 88.9806 136.084 89.0543 135.858 89.1989C135.632 89.3435 135.426 89.5562 135.253 89.8246C135.08 90.093 134.944 90.4118 134.851 90.7627C134.758 91.1135 134.711 91.4894 134.712 91.8686ZM130.858 94.9016C130.858 96.3719 131.652 97.5994 132.601 97.5994C133.548 97.5994 134.345 96.3719 134.345 94.9016C134.345 93.4336 133.548 92.2016 132.601 92.2016C131.652 92.2016 130.858 93.4343 130.858 94.9016ZM131.897 88.2229C131.898 88.7246 132.027 89.2052 132.256 89.5601C132.485 89.9151 132.795 90.1155 133.119 90.1179C133.443 90.1169 133.754 89.9172 133.984 89.5623C134.214 89.2075 134.343 88.7262 134.345 88.2237C134.343 87.721 134.214 87.2396 133.984 86.8846C133.754 86.5295 133.443 86.3297 133.119 86.3287C132.795 86.3311 132.485 86.5315 132.256 86.8862C132.027 87.241 131.898 87.7214 131.897 88.2229ZM142.632 102.812C142.632 101.865 143.183 101.059 143.788 101.059C144.462 101.059 144.982 101.864 144.982 102.812C144.982 103.902 144.463 104.66 143.788 104.66C143.183 104.66 142.632 103.902 142.632 102.812ZM143.421 157.289C143.574 157.289 143.758 157.429 143.758 158.285C143.758 159.326 143.453 160.698 142.357 161.788C141.592 162.593 140.551 163.258 139.021 163.301C139.265 162.166 139.449 160.981 139.449 159.849C139.449 159.468 139.42 159.184 139.389 158.759H139.787C142.204 158.759 143.245 157.289 143.421 157.289ZM143.666 152.599C143.915 152.274 143.972 151.747 143.972 151.225V150.135C143.972 148.761 142.633 147.958 140.795 147.958C138.561 147.958 137.369 149.517 137.369 150.181V152.364C137.369 153.264 138.715 154.165 140.367 154.165C141.684 154.165 142.878 153.644 143.667 152.599M145.257 153.121C144.461 154.071 142.603 156.197 139.51 156.197C137.858 156.197 137.123 155.393 136.878 155.393C136.572 155.393 136.235 155.866 135.899 156.484C135.172 157.812 134.223 160.276 134.223 162.974C134.223 164.868 135.172 166.757 136.939 166.757C142.663 166.757 146.941 161.217 146.941 156.72C146.941 154.165 145.963 153.121 145.257 153.121M146.328 113.282C146.328 114.466 146.574 115.84 147.339 115.84C147.981 115.84 148.532 114.326 148.532 112.667C148.532 110.772 148.318 109.301 148.318 108.543C148.318 108.214 148.41 108.072 148.532 108.072C148.991 108.118 149.421 110.06 149.91 110.06C150.461 110.06 151.281 108.496 151.617 108.496C151.709 108.496 151.739 108.686 151.739 108.732C151.739 109.444 151.035 111.01 151.035 111.623C151.035 112.144 152.81 112.24 152.81 112.713C152.81 113.424 150.95 113.424 150.063 114.041C149.207 114.608 148.686 115.319 148.686 116.267C148.686 117.214 149.297 117.402 150.156 117.402C152.198 117.402 153.636 115.698 154.093 115.698C154.185 115.698 154.245 115.793 154.245 115.936C154.245 116.409 153.206 117.971 153.206 118.682C153.206 119.487 155.104 120.432 155.074 120.906C155.044 121.049 154.92 121.095 154.706 121.095C154.369 121.095 153.849 120.955 153.45 120.955C153.206 120.955 152.992 121.001 152.899 121.191C152.688 121.571 152.961 124.079 152.536 124.079C152.137 124.079 151.096 118.493 148.747 118.493C148.41 118.493 148.166 118.918 148.166 119.63C148.166 121.522 149.358 123.701 150.491 124.745C151.004 125.265 151.863 125.787 151.863 126.072C151.863 126.637 149.91 126.119 149.91 127.064C149.91 127.918 150.155 129.199 150.155 129.955C150.155 130.193 150.124 130.476 149.94 130.476C149.574 130.476 148.686 127.871 148.257 127.871C147.89 127.871 147.095 129.433 146.756 129.433C146.666 129.433 146.605 129.29 146.605 129.153C146.605 128.06 147.736 125.599 147.736 123.181C147.736 122.045 147.645 119.581 146.756 119.581C146.023 119.581 145.196 121.379 144.829 123.181C144.615 124.222 144.768 128.249 144.278 128.249C143.819 128.249 143.941 125.55 143.328 125.55C142.877 125.55 141.899 126.828 141.561 126.828C141.501 126.828 141.439 126.78 141.439 126.686C141.439 126.119 142.326 124.271 142.326 123.891C142.326 123.181 140.307 123.088 140.307 122.518C140.307 122.188 141.102 121.949 141.836 121.76C143.391 121.333 145.687 119.58 145.687 117.12C145.687 114.372 143.971 113.187 142.847 112.048C142.265 111.481 141.623 111.009 141.623 110.629C141.623 110.249 142.358 110.249 142.664 110.249C143.121 110.249 143.575 110.202 143.575 109.635C143.575 109.207 143.512 108.357 143.512 107.694C143.512 107.218 143.544 106.837 143.668 106.837C144.125 106.837 144.768 109.159 145.074 109.159C145.564 109.159 146.237 107.265 146.697 107.265C146.848 107.265 146.91 107.409 146.91 107.834C146.91 109.586 146.328 111.575 146.328 113.282ZM131.743 99.4026C132.081 103.429 135.569 101.392 135.569 106.271C135.569 106.982 135.447 108.025 135.447 108.921C135.447 109.966 135.507 110.867 136.022 110.867C136.541 110.867 136.665 110.298 136.665 109.54C136.665 108.779 136.541 107.833 136.541 107.313C136.541 105.654 137.307 105.276 137.766 105.276C138.93 105.276 139.817 107.125 141.561 107.125C141.163 110.155 137.123 109.348 137.123 112.667C137.123 114.326 138.195 114.702 138.899 114.702C139.541 114.702 139.757 114.559 139.757 113.709C139.757 113.234 139.694 112.713 139.694 112.382C139.693 112.332 139.699 112.282 139.712 112.235C139.724 112.189 139.742 112.146 139.765 112.111C139.788 112.076 139.815 112.048 139.846 112.029C139.876 112.01 139.908 112.001 139.94 112.002C140.614 112.002 143.911 115.887 143.911 117.072C143.911 118.159 140.428 119.249 139.419 119.249C139.113 119.249 139.052 118.918 139.052 118.729C139.052 118.398 139.571 117.402 139.571 116.834C139.571 116.409 139.113 116.124 137.888 116.124C137.307 116.124 136.879 116.218 136.879 116.932C136.879 118.208 138.225 119.772 138.225 120.955C138.225 121.902 137.858 122.472 136.879 122.472C136.052 122.472 134.804 121.476 134.804 119.818C134.804 118.493 135.686 117.168 135.686 116.363C135.686 116.124 135.569 115.744 135.202 115.744C134.069 115.744 133.763 120.386 129.755 120.906C130.399 120.008 130.948 119.013 130.948 116.978C130.948 115.982 130.796 115.174 130.796 114.087C130.796 112.667 131.224 111.955 131.835 111.955C132.967 111.955 133.517 114.417 134.253 114.417C134.652 114.417 135.079 113.851 135.079 112.997C135.079 109.397 130.612 109.918 130.612 104.849C130.612 103.475 130.917 101.771 131.744 99.4026" fill="white"/>
<path d="M137.552 130.192C137.552 130.854 137.858 131.377 138.287 131.377C138.777 131.377 139.083 130.712 139.083 129.954C139.083 128.962 138.501 127.586 137.949 127.586C137.704 127.586 137.798 128.155 137.734 128.771C137.704 129.243 137.552 129.812 137.552 130.191M135.962 123.892C139.174 124.839 140.918 128.582 140.918 132.087C140.918 134.504 139.939 136.726 138.225 136.726C136.665 136.726 135.539 135.071 135.539 132.416C135.539 130.427 136.541 128.344 136.541 126.307C136.541 125.502 136.389 124.697 135.962 123.891M131.898 131.946C132.202 132.416 132.295 132.892 132.295 133.366C132.295 134.077 132.081 134.835 132.081 135.64C132.081 136.775 132.631 137.771 133.425 137.771C134.283 137.771 134.866 136.726 134.866 135.5C134.866 133.699 133.669 131.946 131.898 131.946ZM142.02 128.915C142.234 129.431 142.326 129.954 142.326 130.427C142.326 131.756 141.745 132.985 141.745 134.362C141.745 135.925 142.51 137.201 143.667 137.201C144.922 137.201 145.779 135.64 145.779 133.793C145.779 131.282 144.31 129.151 142.02 128.915ZM132.631 126.401C134.039 126.685 134.376 127.443 134.376 128.062C134.376 129.102 133.764 129.431 133.181 129.431C132.753 129.431 132.264 129.292 131.744 129.292C131.071 129.292 130.399 129.527 129.848 130.524C130.245 130.619 130.827 131.044 130.827 131.993C130.827 134.74 125.903 132.465 125.903 139.525C125.903 143.266 128.41 147.342 132.202 147.342C134.161 147.342 135.416 146.346 135.416 145.208C135.416 144.309 134.376 144.923 134.376 144.165C134.376 143.833 134.742 143.216 134.742 142.695C134.742 142.463 134.62 142.036 134.376 142.036C133.824 142.036 132.784 143.407 130.673 143.407C129.022 143.407 127.401 141.941 127.401 139.95C127.401 139.526 127.523 139.286 127.707 139.286C127.891 139.286 128.135 139.477 128.349 139.477C128.534 139.477 128.564 139.286 128.564 138.765C128.564 138.245 128.564 136.774 129.144 136.774C129.725 136.774 130.827 140.092 135.049 140.092C136.451 140.092 139.174 139.665 140.185 138.245C140.153 143.455 137.522 150.323 132.019 150.323C126.302 150.323 123.242 143.216 123.242 136.68C123.242 129.431 127.064 122.85 132.295 122.85C133.639 122.85 134.773 123.558 134.773 124.459C134.773 125.693 132.784 124.935 132.631 126.401ZM112.848 72.3068C114.866 72.3068 115.782 75.0069 115.782 78.0384C115.782 79.3636 115.539 81.3074 115.141 81.3074C114.744 81.3074 114.804 80.2175 114.744 79.2215C114.682 77.9444 114.53 77.6603 114.254 77.6603C113.734 77.6603 113.399 79.553 113.399 81.3074C113.399 82.3951 113.521 83.6286 114.071 83.6286C114.376 83.6286 114.652 83.3911 114.834 83.1062C114.712 85.286 113.671 87.1825 112.205 87.1825C109.514 87.1825 108.505 82.3011 108.199 79.459C106.579 82.1125 105.081 84.0555 102.39 84.0555C99.8834 84.0555 98.751 81.2142 98.751 78.5142C98.751 77.7069 98.9344 75.6232 99.5778 75.6232C100.341 75.6232 99.6699 79.5056 101.167 79.5056C101.534 79.5056 102.206 79.0321 102.574 77.4708C102.787 76.5215 102.911 75.5293 102.911 74.6754C102.911 73.3945 102.727 72.5917 102.117 72.5917C101.596 72.5917 100.953 73.2058 100.739 73.5373C101.474 70.1255 103.247 68.3733 105.202 68.3733C107.619 68.3733 108.903 71.6912 108.903 75.3849C108.903 75.9051 108.871 76.4749 108.811 76.995C109.85 74.3416 111.289 72.3068 112.848 72.3068ZM110.492 77.8955C110.492 77.0913 110.37 76.9018 110.248 76.9018C109.942 76.9018 109.606 77.4708 109.117 78.7495C109.178 80.4558 109.362 81.2135 109.668 81.2135C110.003 81.2135 110.492 79.5522 110.492 77.8955ZM106.303 79.8371C106.639 79.8371 107.068 79.2681 107.864 77.8955C107.925 77.2792 107.925 76.7102 107.925 76.0013C107.925 75.0542 107.68 74.0109 107.314 74.0109C106.395 74.0109 105.937 77.8023 105.937 78.7991C105.937 79.3636 106.119 79.8371 106.303 79.8371ZM111.289 84.0555C112.052 84.0555 112.908 79.5056 112.908 76.6635C112.908 76.0472 112.848 75.3857 112.664 75.3857C112.021 75.3857 110.951 80.0754 110.951 82.6326C110.951 83.6286 111.105 84.0555 111.289 84.0555ZM103.798 81.4495C104.837 81.4495 106.027 72.7338 106.027 71.2642C106.027 70.8839 105.936 70.599 105.723 70.599C104.775 70.599 103.46 78.89 103.46 80.7376C103.46 81.0714 103.522 81.4495 103.798 81.4495Z" fill="white"/>
<path d="M107.129 85.0478C105.814 85.0478 105.754 87.514 105.754 92.4849C104.776 89.2173 103.155 85.7123 101.259 85.7123C99.9753 85.7123 99.4857 87.0405 99.4857 89.3579C99.4857 89.8337 99.5158 90.5456 99.5779 90.968C99.7297 90.1652 100.221 89.8337 100.831 89.8337C102.146 89.8337 103.737 91.395 104.775 93.5275C103.583 93.1967 102.42 92.8652 101.442 92.8652C100.831 92.8652 100.279 92.9607 99.8214 93.2922C98.9345 93.9056 97.7419 95.9426 97.7419 99.023C97.7419 99.4965 97.7734 100.017 97.835 100.586C98.9044 96.8905 101.748 95.233 103.583 95.233C103.95 95.233 104.225 95.2804 104.438 95.327C103.491 96.6522 103.277 98.9764 103.215 100.538C103.185 101.296 103.001 101.345 102.666 101.345C102.666 102.906 103.461 105.23 103.461 106.413C103.461 106.837 103.307 107.218 103.155 107.313C103.155 109.398 104.5 110.914 104.5 112.24C104.5 112.57 104.438 112.856 104.346 112.998C104.439 113.852 105.918 115.286 106.11 116.003C106.344 116.877 106.609 117.026 106.762 117.026C107.282 117.026 108.106 116.076 108.106 115.224C108.106 114.94 107.954 114.608 107.833 114.465C107.252 113.803 106.945 112.382 106.701 111.435C106.486 111.435 106.209 111.294 106.113 110.738C105.945 109.756 105.937 107.93 105.691 106.837C105.294 106.698 105.11 106.459 105.11 105.184C105.11 104.565 105.356 102.15 105.356 101.296C105.172 101.296 104.928 101.107 104.928 100.537C104.928 99.023 105.907 97.8383 106.181 95.896C107.925 97.8842 108.352 99.9212 108.352 101.723C108.352 102.668 108.26 103.571 108.138 104.425C109.423 103.429 111.349 101.961 111.349 98.9764C111.349 97.222 110.83 95.2804 107.374 94.5219C108.443 93.9056 109.79 93.5763 110.921 93.5763C112.878 93.5763 114.009 94.5219 114.253 96.6522C114.651 95.7073 114.958 94.6151 114.958 93.6229C114.958 91.2995 113.702 89.7849 112.113 89.7849C110.248 89.7849 108.597 91.2995 106.823 93.1494C107.62 90.5922 108.168 89.0753 109.147 89.0753C109.3 89.0753 109.454 89.1241 109.606 89.1707C109.239 87.0871 107.864 85.0478 107.129 85.0478ZM158.648 119.201C160.178 119.201 161.401 122.281 161.401 125.882C161.401 129.715 160.238 133.886 158.165 136.726C158.133 130.334 153.082 132.371 153.082 127.728C153.082 125.739 154.001 124.412 155.103 124.412C156.083 124.412 156.847 124.839 157.398 125.693C156.847 124.888 156.572 123.749 156.572 122.662C156.572 120.858 157.307 119.201 158.648 119.201ZM135.961 70.7418C135.715 70.1255 134.803 69.797 134.376 69.797C133.028 69.797 132.111 71.265 131.927 72.5925C131.805 72.1167 131.712 71.5491 131.712 70.9801C131.712 68.8965 132.63 66.3385 134.866 66.3385C136.818 66.3385 137.581 67.9486 137.858 67.9486C138.163 67.9486 138.47 67.4728 138.715 67.4728C139.051 67.4728 139.051 68.2801 139.051 68.8499C139.051 70.7418 138.502 74.0116 137.124 75.1963C136.878 74.3897 136.389 73.4907 135.599 72.924C135.507 72.8675 135.429 72.7691 135.374 72.6419C135.32 72.5148 135.291 72.3648 135.293 72.2121C135.293 71.692 135.599 71.0267 135.961 70.7418M131.345 74.2003C132.141 75.3857 132.843 75.9066 133.7 75.9066C134.038 75.9066 134.436 75.7661 134.651 75.7661C134.926 75.7661 135.109 75.9525 135.109 76.2847C135.109 76.8064 134.803 77.6588 134.436 78.1338C134.803 78.3699 135.201 78.4661 135.63 78.4661C137.367 78.4661 139.357 76.7575 139.357 72.497C139.724 73.2532 139.94 74.8182 139.94 75.5278C139.94 80.6918 137.491 82.68 135.233 82.68C133.763 82.68 133.028 81.9216 132.843 81.9216C132.264 81.9216 132.295 83.7233 131.897 83.676C131.192 83.4873 130.552 81.0699 130.552 78.5119C130.552 76.9958 130.796 75.385 131.345 74.2003ZM105.172 44.0738C105.172 43.7889 104.255 43.5048 103.001 43.5048C101.015 43.5048 101.289 46.0643 99.7613 46.0643C98.1708 46.0643 98.5672 43.4086 96.5492 43.4086C95.3256 43.4086 94.196 43.7423 94.196 44.1678C94.196 44.7368 95.6327 44.5008 95.6327 46.0643C95.6327 47.721 92.5449 48.1968 92.5449 49.1912C92.5449 49.5205 92.7875 49.6625 93.0932 49.6625C93.7666 49.6625 94.8365 49.1905 95.6016 49.1905C96.0306 49.1905 96.4279 49.3311 96.4279 49.9474C96.4279 51.1321 94.7758 53.2653 94.7758 54.2124C94.7758 54.4973 94.9282 54.5928 95.0815 54.5928C95.6929 54.5928 96.7326 52.1754 97.7113 52.1754C99.3319 52.1754 98.263 57.5281 99.1485 57.5281C100.067 57.5281 99.6696 52.2686 100.983 52.2686C102.055 52.2686 102.849 55.9157 103.583 55.9157C103.767 55.9157 103.92 55.6805 103.92 55.3467C103.92 54.3545 103.001 52.3152 103.001 50.99C103.001 50.185 103.369 49.8046 103.858 49.8046C104.56 49.8046 105.509 50.4676 106.027 50.4676C106.212 50.4676 106.395 50.3744 106.395 50.0429C106.395 48.9064 103.674 47.6744 103.674 46.2063C103.674 44.7368 105.172 44.7368 105.172 44.0738ZM112.358 48.9064C112.358 49.758 114.284 51.6064 115.172 51.6064C115.69 51.6064 115.843 50.5164 115.843 49.3777C115.843 47.9585 115.447 47.9119 114.651 47.9119C113.643 47.9119 112.358 48.3388 112.358 48.9064ZM115.539 58.2843C115.539 55.4429 110.577 50.2804 110.524 48.054C110.518 47.851 110.59 47.648 110.7 47.4661C111.551 46.0793 115.08 45.066 115.08 43.8829C115.08 43.2688 114.345 43.2688 113.977 43.2688C111.135 43.2688 106.976 44.8789 106.976 46.4424C106.976 48.0547 110.706 51.986 110.706 53.9276C110.706 54.45 110.492 54.6394 110.155 54.6394C109.116 54.6394 106.853 52.6956 105.783 52.6956C105.294 52.6956 105.11 53.2165 105.11 53.9742C105.11 56.2495 106.853 60.5589 106.853 61.8367C106.853 61.9788 106.823 62.1675 106.701 62.1675C106.149 62.1675 103.553 57.4326 102.634 57.4326C102.298 57.4326 102.268 58.1422 102.268 59.1848V60.7956C102.268 61.8856 102.236 62.5471 101.902 62.5471C101.106 62.5471 100.738 59.0893 99.9757 59.0893C99.18 59.0893 99.0267 65.2478 98.263 65.2478C97.3755 65.2478 98.1407 58.4737 97.2838 58.4737C96.3362 58.4737 95.2654 62.9748 94.5924 62.9748C94.3484 62.9748 94.2877 62.5944 94.2877 62.2629C94.2877 60.8911 94.8059 58.6646 94.8059 57.3394C94.8059 56.6742 94.6841 56.2961 94.3178 56.2961C93.3692 56.2961 91.2892 58.6646 90.4954 58.6646C90.3731 58.6646 90.2208 58.5692 90.2208 58.3797C90.2208 57.244 93.5526 53.6434 93.5526 52.0333C93.5526 50.4676 88.9651 51.5124 88.9651 49.7106C88.9651 48.1968 92.2392 46.631 92.2392 45.0698C92.2397 43.6935 88.3547 43.0793 86.8578 43.0793C85.0519 43.0793 84.0757 43.4086 84.0757 44.2159C84.0757 45.4486 88.1727 45.8282 88.1727 46.9159C88.1727 47.9585 83.9224 50.7525 83.9224 52.3626C83.9224 53.7855 89.9136 52.458 89.9136 53.9276C89.9136 55.5377 84.687 62.4989 84.687 64.8209C84.687 65.3433 84.9326 65.5786 85.2669 65.5786C86.8578 65.5786 90.9835 60.8911 92.116 60.8911C92.5138 60.8911 92.5449 61.6473 92.5449 62.3095C92.5449 63.5438 92.2693 65.4365 92.2693 66.8113C92.2693 67.9013 92.4537 68.6589 93.0636 68.6589C94.196 68.6589 95.2353 65.6748 95.999 65.6748C96.9767 65.6748 96.3979 74.4371 97.8651 74.4371C99.1184 74.4371 99.638 64.9629 100.432 64.9629C101.229 64.9629 101.871 67.7118 102.604 67.7118C103.521 67.7118 103.094 62.9282 104.072 62.9282C105.142 62.9282 108.198 68.6123 109.576 68.6123C110.003 68.6123 110.155 68.0899 110.155 67.4247C110.155 64.9163 107.894 59.2337 107.894 57.4326C107.894 56.9591 107.984 56.8163 108.32 56.8163C109.514 56.8163 113 59.3742 114.651 59.3742C115.202 59.3742 115.539 58.9007 115.539 58.2843ZM87.6206 55.5377C87.6206 56.4848 85.2979 59.6569 84.4736 59.6569C84.1679 59.6569 84.0757 59.0893 84.0757 58.5692C84.0757 57.6236 84.3503 56.2961 84.6875 55.8691C85.0839 55.3001 86.001 55.0197 86.7045 55.0197C87.131 55.0197 87.6206 55.1581 87.6206 55.5384M110.095 60.4168C110.095 62.0742 113.918 70.1736 114.651 70.1736C115.264 70.1736 115.721 68.5169 115.721 67.0932C115.721 66.7174 115.66 66.3393 115.54 66.0529C114.988 64.8697 111.105 60.1327 110.248 60.1327C110.155 60.1327 110.095 60.2755 110.095 60.4168M159.198 46.065C159.198 46.7257 159.534 47.2459 159.963 47.2459C160.064 47.2476 160.163 47.2183 160.256 47.1596C160.35 47.101 160.434 47.0142 160.505 46.9044C160.577 46.7945 160.633 46.6638 160.671 46.5198C160.71 46.3758 160.729 46.2215 160.728 46.0658C160.728 45.4005 160.391 44.8796 159.963 44.8796C159.862 44.8779 159.762 44.9074 159.669 44.9664C159.576 45.0253 159.491 45.1126 159.42 45.223C159.348 45.3334 159.292 45.4648 159.254 45.6094C159.216 45.754 159.197 45.9089 159.198 46.065ZM154.215 56.5329C154.215 53.1684 149.021 52.316 149.021 51.5583C149.021 50.9442 151.923 49.8993 153.42 49.852C151.128 45.3066 147.859 45.7801 147.859 44.9751C147.859 44.4993 150.306 43.5522 152.566 43.5522C154.461 43.5522 156.235 44.2151 156.235 46.4408C156.235 47.6751 155.593 48.9537 155.593 50.8487C155.593 51.892 155.928 52.7903 156.818 52.7903C157.767 52.7903 157.981 51.2268 157.981 49.5678C157.981 48.196 157.827 47.1527 157.827 46.4897C157.827 44.4993 158.708 43.1748 159.963 43.1748C161.004 43.1748 161.248 43.8836 162.778 43.8836C161.951 44.6421 161.647 46.0184 161.647 46.6791C161.647 48.6696 162.474 50.0436 162.474 54.1177C162.474 61.5992 157.949 64.2526 152.412 64.2526C150.889 64.2526 149.267 64.0632 147.675 63.6851C147.431 63.6385 147.369 63.5423 147.369 63.307C147.369 62.6891 149.542 62.3576 149.542 59.3284C149.542 58.143 149.297 57.0064 149.297 56.5795C149.297 56.3442 149.419 56.2014 149.542 56.2014C150.002 56.2014 150.92 58.948 152.627 58.948C153.083 58.948 154.215 58.7105 154.215 56.5329M159.38 51.7492C159.38 55.9639 157.399 59.1863 153.816 60.0853C154.215 60.1312 154.583 60.1312 154.95 60.1312C159.136 60.1312 160.667 57.1959 160.667 54.7341C160.667 53.3593 160.177 52.1273 159.38 51.75M157.276 112.807C157.766 110.439 158.379 108.78 159.381 106.223C158.379 105.42 155.716 103.712 155.716 100.916C155.716 97.6489 158.347 95.0917 158.892 95.0917C159.136 95.0917 159.197 95.4224 159.197 96.0388C159.197 97.7429 158.678 100.491 158.678 101.959C158.678 103.285 159.229 104.566 159.719 104.566C160.238 104.566 161.676 101.724 161.676 98.9283C161.676 93.9041 158.83 92.3894 157.95 92.3894C157.123 92.3894 155.624 94.4738 152.106 94.4738C145.534 94.4738 144.034 84.3878 144.034 79.98C144.034 79.7913 144.064 79.7424 144.095 79.7424C144.248 79.7424 144.891 80.9767 146.971 80.9767C148.042 80.9767 149.021 80.5497 150.583 80.5497C154.246 80.5497 155.869 84.4833 158.133 89.5007C159.503 90.8267 162.779 92.9584 162.779 98.9749C162.779 104.281 159.136 107.219 158.256 112.901C159.657 112.667 160.484 108.78 161.92 108.78C162.656 108.78 162.993 109.68 162.993 111.104C162.993 113.186 162.228 116.315 160.758 118.256C160.789 118.064 160.789 117.829 160.789 117.544C160.789 116.219 160.454 114.326 159.473 114.326C157.95 114.326 157.459 116.882 156.603 119.012C155.716 114.184 154.522 109.823 152.383 107.17C150.216 104.47 146.481 105.938 146.481 101.012C146.481 99.6845 147.033 97.7917 147.033 96.2748C147.033 95.7547 146.971 95.2804 146.787 94.9008C149.726 96.6086 148.685 99.6371 150.491 102.764C151.616 104.755 154.736 106.649 156.543 114.844C156.572 114.607 156.603 113.993 156.603 113.566C156.603 106.554 150.613 99.6845 150.093 96.8424C153.573 97.4587 154.184 98.7854 155.838 105.891C156.174 107.361 157.277 111.008 157.277 112.807M156.481 89.8322C156.481 88.8377 154.858 88.7445 154.705 85.949C154.674 85.5221 154.584 84.7659 154.246 84.7659C153.695 84.7659 154.123 87.3705 153.511 87.3705C152.106 87.3705 151.648 83.1069 151.127 83.1069C151.003 83.1069 150.858 83.2498 150.858 83.8188C150.858 84.3389 150.92 84.6727 150.92 85.2846C150.92 85.9024 150.828 86.3271 150.46 86.3271C149.634 86.3271 148.9 83.3452 148.196 83.3452C148.042 83.3452 147.89 83.4873 147.89 83.7233C147.89 84.2923 148.501 85.3334 148.501 85.8558C148.501 86.9924 146.513 86.376 146.513 87.3239C146.513 87.7508 146.787 87.8906 147.155 87.8906C147.798 87.8906 148.808 87.4659 149.328 87.4659C149.634 87.4659 150.093 87.5614 150.093 88.1755C150.093 88.8377 148.992 89.6901 148.992 90.3058C148.992 90.5907 149.176 90.7305 149.328 90.7305C150.155 90.7305 151.617 88.507 152.657 88.507C152.839 88.507 153.297 88.6491 153.297 89.076C153.297 89.6901 152.259 90.7778 152.259 91.6783C152.259 91.9159 152.351 92.2008 152.535 92.2008C153.082 92.2008 153.817 89.9743 154.858 89.9743C155.257 89.9743 155.838 90.2126 156.144 90.2126C156.39 90.2126 156.481 89.9743 156.481 89.8322" fill="white"/>
<path d="M133.7 61.4571C134.191 61.4571 134.283 63.3062 134.376 64.3939C134.437 64.9637 134.498 65.0103 134.652 65.0103C135.02 65.0103 135.599 62.8304 135.991 62.8304C136.572 62.8304 138.134 65.341 140.734 65.341C144.432 65.341 147.921 61.3143 147.921 54.2109C147.921 47.3436 144.798 43.3161 140.489 43.3161C138.441 43.3161 136.939 44.8796 136.144 44.8796C135.661 44.9262 134.926 43.0334 134.559 43.0334C134.407 43.0334 134.253 43.5047 134.253 44.3098C134.253 44.833 134.253 46.4897 133.886 46.4897C133.149 46.4897 130.307 43.2229 130.307 44.406C130.307 45.4959 132.202 48.8108 132.202 49.6632C132.202 50.5172 130.337 51.3222 130.337 51.8912C130.337 52.9323 132.325 53.121 132.325 54.4492C132.325 55.7744 130.245 56.817 130.245 57.8137C130.245 58.6165 132.325 58.049 132.325 59.0434C132.325 60.0379 130.796 63.3536 130.796 64.2984C130.796 64.5367 130.826 64.5367 130.949 64.5367C131.529 64.5367 133.271 61.4563 133.7 61.4563M134.59 53.6907C134.59 53.1698 133.395 52.1761 133.395 51.6063C133.395 51.5131 133.455 51.4643 133.548 51.4643C133.886 51.4643 134.467 51.6552 134.926 51.6552C135.325 51.6552 135.385 49.0018 135.686 49.0018C135.898 49.0018 136.266 51.5131 136.605 51.5131C137.001 51.5131 137.734 50.8013 138.041 50.8013C138.103 50.8013 138.164 50.8486 138.164 50.9441C138.164 51.2748 137.398 52.5519 137.398 52.9323C137.398 53.3592 139.112 53.8794 139.112 54.2598C139.112 54.7333 137.368 54.6867 137.368 55.1137C137.368 55.4429 138.011 56.7704 138.011 57.1958C138.011 57.2913 137.98 57.3401 137.919 57.3401C137.674 57.3401 136.725 56.6749 136.449 56.6749C136.114 56.6749 135.569 58.6165 135.294 58.6165C135.201 58.6165 135.141 58.4271 135.141 58.1895L135.078 56.2953C135.078 56.1059 135.02 55.9165 134.866 55.9165C134.498 55.9165 133.793 55.8676 133.578 55.8676C133.425 55.8676 133.365 55.821 133.365 55.7278C133.365 55.3474 134.59 54.0215 134.59 53.6907ZM140.551 62.6898C138.41 62.6898 137.001 61.0331 137.001 60.1792C137.001 59.7523 137.185 59.4696 137.43 59.4696C138.103 59.4696 139.572 61.0782 140.062 61.0782C140.184 61.0782 140.275 60.9843 140.275 60.6994C140.275 59.8455 139.756 58.4263 139.756 57.7175C139.756 57.5281 139.848 57.386 140.032 57.386C140.857 57.386 142.083 57.9084 142.726 57.9084C142.938 57.9084 142.999 57.7175 142.999 57.5281C142.999 56.4855 141.01 54.4484 141.01 53.8321C141.01 53.263 143.482 52.4091 143.482 51.5124C143.482 50.563 140.122 51.226 140.122 50.327C140.122 49.6625 140.765 48.526 140.765 48.005C140.765 47.7675 140.643 47.6743 140.429 47.6743C140.153 47.6743 138.685 48.5748 138.073 48.5748C137.766 48.5748 137.399 48.4794 137.399 47.8164C137.399 46.7242 138.593 45.541 140.459 45.541C143.482 45.541 145.29 48.7635 145.29 54.1628C145.29 60.9843 142.203 62.6898 140.551 62.6898ZM119.85 144.639C119.85 145.066 119.758 145.542 119.512 146.014C119.178 145.067 118.229 144.59 117.8 144.593C114.652 144.593 115.843 151.652 112.479 151.652C111.074 151.652 110.951 151.367 110.431 151.367C110.217 151.367 110.095 151.51 110.095 151.794C110.095 153.028 111.226 156.057 114.376 156.057C117.525 156.057 120.553 153.075 120.553 149.375C120.553 148.761 120.461 148.102 120.277 147.437C120.399 147.152 120.707 146.963 120.982 146.963C121.47 146.963 121.746 147.817 122.204 147.817C122.694 147.817 123.061 147.248 123.061 146.49C123.061 145.874 122.847 145.447 122.479 145.159C122.725 144.878 122.907 144.402 122.907 143.882C122.907 143.076 122.541 142.322 121.928 142.322C121.653 142.322 121.47 142.465 121.256 142.792C121.196 141.942 120.89 141.136 120.309 141.136C119.85 141.136 119.512 141.657 119.512 142.465C119.512 143.216 119.85 143.834 119.85 144.639Z" fill="white"/>
<path d="M111.625 146.442C110.708 146.442 109.331 144.925 109.331 144.071C109.331 143.359 109.76 142.98 110.094 142.98C110.859 142.98 112.234 144.449 112.234 145.681C112.234 146.015 112.081 146.442 111.625 146.442ZM103.093 135.831C105.539 136.775 106.762 138.812 107.006 141.231C107.252 143.549 107.558 145.445 108.138 146.393C108.903 147.723 110.4 148.901 111.716 148.901C112.818 148.901 113.702 148.338 113.702 146.773C113.702 145.067 112.204 141.231 110.003 141.231C109.79 141.231 109.514 141.28 109.209 141.28C108.933 141.28 108.535 141.185 108.29 140.853C107.802 140.188 107.649 136.635 106.731 134.504C105.723 132.136 104.622 131.471 103.125 131.471C102.055 131.471 100.861 132.371 100.861 133.699C100.861 134.504 101.136 135.071 103.093 135.831Z" fill="white"/>
<path d="M118.443 130.049C118.443 127.918 115.598 127.872 115.598 124.649C115.598 123.842 115.935 122.469 116.608 121C116.884 123.464 117.525 124.743 118.902 125.55C121.622 127.111 121.99 129.479 121.99 131.992C121.99 136.258 120.064 141.562 115.111 141.562C111.135 141.562 108.291 136.067 108.291 131.425C108.291 130.145 108.505 128.723 109.025 128.723C109.484 128.723 109.638 129.291 110.002 129.86C111.38 131.992 112.877 132.56 115.049 132.56C117.006 132.56 118.443 131.33 118.443 130.049ZM118.565 133.46C117.516 134.204 117.098 134.077 117.098 135.738C117.098 136.351 117.006 137.154 117.006 137.581C117.006 138.148 117.067 138.482 117.494 138.482C118.596 138.482 120.339 135.593 120.339 133.129C120.339 132.464 120.094 132.184 119.818 132.184C119.573 132.184 119.3 132.94 118.565 133.46ZM108.811 109.54C108.811 106.507 113.459 104.897 113.459 101.154C113.459 100.538 113.307 99.4499 113.031 98.6433C114.652 100.017 115.843 102.342 115.843 104.234C115.843 107.503 113.642 109.017 113.642 111.057C113.642 113.425 115.997 113.803 115.997 116.741C115.997 119.154 113.763 121.95 113.763 125.077C113.763 127.491 114.866 129.479 116.547 129.811C115.997 130.002 115.507 130.145 114.988 130.145C111.899 130.145 108.719 126.215 108.719 121.523C108.719 119.2 109.362 117.168 110.34 115.697C111.196 116.835 112.052 117.592 112.602 117.592C113.092 117.592 113.307 117.214 113.307 116.645C113.307 114.891 108.811 113.283 108.811 109.54ZM91.0752 132.939C91.2042 134.558 92.1775 135.783 93.277 135.594C93.6734 135.527 94.0422 135.356 94.2877 135.121C94.5317 136.635 95.3532 137.61 96.4624 137.385C97.588 137.158 98.3546 135.784 98.2324 134.029C98.2105 133.652 98.1486 133.284 98.049 132.939C98.049 132.939 98.1984 132.916 98.311 132.881C99.4143 132.558 100.159 131.186 100.067 129.527C99.9451 127.824 98.9577 126.558 97.9282 126.754C97.5303 126.83 97.1615 127.063 96.916 127.397C96.6404 125.978 95.7782 124.742 94.6002 125.045C93.5376 125.317 92.834 126.715 92.9413 128.486C92.9577 128.774 93.0014 129.103 93.0936 129.432L92.7904 129.502C91.8976 129.708 90.9296 131.099 91.0752 132.939ZM96.7889 131.076C96.8097 131.313 96.7997 131.554 96.7596 131.786C96.7195 132.017 96.65 132.233 96.5553 132.422C96.4606 132.611 96.3424 132.769 96.2078 132.887C96.0732 133.005 95.9248 133.079 95.7713 133.107C95.6179 133.135 95.4623 133.115 95.3139 133.048C95.1655 132.982 95.0271 132.87 94.9068 132.72C94.7866 132.569 94.6869 132.383 94.6136 132.173C94.5402 131.962 94.4948 131.731 94.4798 131.492C94.4622 131.257 94.4746 131.02 94.5163 130.792C94.558 130.565 94.6282 130.352 94.7229 130.167C94.8177 129.981 94.935 129.827 95.0684 129.711C95.2017 129.596 95.3483 129.523 95.5 129.496C95.6516 129.468 95.8052 129.487 95.952 129.552C96.0988 129.617 96.236 129.725 96.3557 129.872C96.4754 130.019 96.5753 130.201 96.6496 130.407C96.7239 130.614 96.7712 130.841 96.7889 131.076Z" fill="white"/>
</svg>
