<svg width="46" height="45" viewBox="0 0 46 45" fill="none" xmlns="http://www.w3.org/2000/svg">
<path d="M41.9776 13.0303C41.7523 12.1992 41.3134 11.4416 40.7046 10.8327C40.0957 10.2238 39.338 9.78492 38.507 9.55964C35.4245 8.74683 23.1001 8.74683 23.1001 8.74683C23.1001 8.74683 10.7757 8.74683 7.69322 9.55964C6.00572 10.0125 4.67822 11.3428 4.2226 13.0303C3.4126 16.11 3.4126 22.5 3.4126 22.5C3.4126 22.5 3.4126 28.9209 4.2226 31.9696C4.67822 33.6571 6.00854 34.9875 7.69322 35.4403C10.7757 36.2531 23.1001 36.2531 23.1001 36.2531C23.1001 36.2531 35.4245 36.2531 38.507 35.4403C39.338 35.215 40.0957 34.7761 40.7046 34.1672C41.3134 33.5583 41.7523 32.8007 41.9776 31.9696C42.7876 28.89 42.7876 22.5 42.7876 22.5C42.7876 22.5 42.7876 16.11 41.9776 13.0303Z" fill="white"/>
<path d="M19.1431 28.4344L29.3918 22.5337L19.1431 16.5994V28.4344Z" fill="#171A1C"/>
</svg>
